<svg xmlns="http://www.w3.org/2000/svg" width="36" height="36" viewBox="0 0 36 36"><defs><style>.cls-1{fill:#e30a17;}.cls-2{fill:#fff;}.cls-3{fill:none;stroke:#000;stroke-miterlimit:10;}</style></defs><title>flag-tr</title><g id="Layer_2" data-name="Layer 2"><g id="Vectors"><path class="cls-1" d="M35.25,17.93A17.5,17.5,0,1,1,17.75.43,17.5,17.5,0,0,1,35.25,17.93Z"/><path class="cls-2" d="M15.14,24.29a6.36,6.36,0,1,1,4.49-10.87,7.88,7.88,0,1,0,0,9A6.32,6.32,0,0,1,15.14,24.29Z"/><polygon class="cls-2" points="22.77 14.55 24.24 16.67 26.71 15.93 25.14 17.98 26.62 20.1 24.18 19.25 22.62 21.3 22.67 18.72 20.24 17.87 22.71 17.13 22.77 14.55"/><circle class="cls-3" cx="18" cy="18" r="17.5"/></g></g></svg>