<svg xmlns="http://www.w3.org/2000/svg" width="36" height="36" viewBox="0 0 36 36"><defs><style>.cls-1{fill:#01247d;}.cls-2{fill:#fff;}.cls-3{fill:#cf142b;}.cls-4{fill:none;stroke:#01247d;stroke-miterlimit:10;}</style></defs><title>flag-en</title><g id="Layer_2" data-name="Layer 2"><g id="Vectors"><path class="cls-1" d="M1.56,11.2A12.94,12.94,0,0,0,1,12.67H3.77Z"/><path class="cls-1" d="M33.87,24.67q.3-.74.54-1.5H31.62Z"/><path class="cls-1" d="M5.3,30.25a17.43,17.43,0,0,0,7.16,4.37V25.47Z"/><path class="cls-1" d="M12.46,1.23A17.44,17.44,0,0,0,5.28,5.62l7.18,4.79Z"/><path class="cls-1" d="M34.41,12.67a15.2,15.2,0,0,0-.54-1.47l-2.2,1.47Z"/><path class="cls-1" d="M23,34.62a17.43,17.43,0,0,0,7.16-4.37L23,25.47Z"/><path class="cls-1" d="M1,23.17q.24.76.54,1.5l2.25-1.5Z"/><path class="cls-1" d="M30.15,5.62A17.44,17.44,0,0,0,23,1.23v9.18Z"/><path class="cls-2" d="M34.94,21H20.78V35.15A16.63,16.63,0,0,0,23,34.62V25.47l7.16,4.78a17.13,17.13,0,0,0,2.18-2.68l-6.61-4.4h4.16l3.6,2.4c.14-.29.28-.59.41-.9l-2.25-1.5h2.79A16.11,16.11,0,0,0,34.94,21Z"/><path class="cls-2" d="M12.46,1.23v9.18L5.28,5.62a17.25,17.25,0,0,0-2.13,2.6l6.7,4.45H5.69L2,10.22c-.16.32-.31.65-.44,1l2.21,1.47H1a16.63,16.63,0,0,0-.53,2.19H14.65V.7A16.63,16.63,0,0,0,12.46,1.23Z"/><path class="cls-2" d="M.49,21A16.11,16.11,0,0,0,1,23.17H3.81l-2.25,1.5a18.48,18.48,0,0,0,1.56,2.91l6.62-4.41h2.72v.95L4.52,29.41q.38.43.78.84l7.16-4.78v9.15a16.63,16.63,0,0,0,2.19.53V21Z"/><path class="cls-2" d="M34.41,12.67H31.67l2.2-1.47a16.84,16.84,0,0,0-1.6-3l-6.72,4.46H23v-1l7.89-5.25c-.23-.26-.46-.52-.71-.76L23,10.41V1.23A16.63,16.63,0,0,0,20.78.7V14.86H34.94A16.63,16.63,0,0,0,34.41,12.67Z"/><path class="cls-3" d="M34.94,14.86H20.78V.7a17.53,17.53,0,0,0-6.13,0V14.86H.49A17.53,17.53,0,0,0,.49,21H14.65V35.15a16.92,16.92,0,0,0,6.13,0V21H34.94a16.92,16.92,0,0,0,0-6.13Z"/><path class="cls-3" d="M25.7,23.17l6.61,4.4a16.46,16.46,0,0,0,1.15-2l-3.6-2.4Z"/><path class="cls-3" d="M23,12.67h2.58l6.72-4.46a17.81,17.81,0,0,0-1.41-1.83L23,11.63Z"/><path class="cls-3" d="M12.46,23.17H9.74L3.12,27.58a16.42,16.42,0,0,0,1.4,1.83l7.94-5.29Z"/><path class="cls-3" d="M9.85,12.67,3.15,8.22a18.84,18.84,0,0,0-1.15,2l3.69,2.45Z"/><circle class="cls-4" cx="18" cy="18" r="17.5"/></g></g></svg>