<?xml version="1.0" encoding="UTF-8"?>
<svg width="142px" height="26px" viewBox="0 0 142 26" version="1.1" xmlns="http://www.w3.org/2000/svg" xmlns:xlink="http://www.w3.org/1999/xlink">
    <!-- Generator: Sketch 52.5 (67469) - http://www.bohemiancoding.com/sketch -->
    <title>Logo / Mobile /-dark-bkg-green</title>
    <desc>Created with Sketch.</desc>
    <g id="Playground" stroke="none" stroke-width="1" fill="none" fill-rule="evenodd">
        <g transform="translate(-575.000000, -305.000000)" id="Logo-/-Mobile-/-dark-bkg-green">
            <g transform="translate(575.000000, 303.000000)">
                <path d="M29.4719608,10.7048712 L29.4719608,19.6260129 C29.4719608,19.8409251 29.4441176,20.2478864 29.4441176,20.2478864 C29.4941466,21.7021375 28.735337,23.0675236 27.4648977,23.8092536 C26.1944583,24.5509835 24.6146266,24.5509835 23.3441873,23.8092536 C22.073748,23.0675236 21.3149384,21.7021375 21.3649673,20.2478864 C21.3649673,20.2478864 21.3649673,19.8409251 21.3649673,19.6260129 L21.3649673,10.7048712 L17.2024183,10.7048712 L17.2024183,19.8820785 C17.2024183,22.2842174 17.8830283,24.2138544 19.2442484,25.6709895 C20.628566,27.1424281 22.5973389,27.9428062 24.6318954,27.8612646 C26.5901961,27.8612646 27.9452288,27.2119555 29.4719608,25.9224824 L29.4719608,27.3262705 L33.6159477,27.3262705 L33.6159477,10.7048712 L29.4719608,10.7048712 Z" id="Path" fill="#F0F0F0" fill-rule="evenodd"></path>
                <path d="M0.283071895,21.6516745 L4.06045752,21.6836827 C4.39457516,23.5584485 5.76662309,24.4958314 8.17660131,24.4958314 C9.02602447,24.5312741 9.87151601,24.3633957 10.640719,24.0065632 C11.1274186,23.822599 11.4789673,23.3985689 11.5648198,22.8919336 C11.6506723,22.3852982 11.4580059,21.8717274 11.058366,21.5419321 C10.6221464,21.1955183 10.0967582,20.975457 9.54091503,20.9063407 L5.87026144,20.3119028 C5.23553953,20.1969494 4.61381625,20.0208203 4.01405229,19.7860539 C3.44808034,19.5595596 2.91946003,19.2513448 2.44555556,18.871534 C1.95728476,18.5040301 1.56445935,18.0276294 1.29934641,17.4814637 C1.01880818,16.8731006 0.879308592,16.2108043 0.890980392,15.5426815 C0.836451427,14.00377 1.56389617,12.5393089 2.83071895,11.6376815 C4.12078431,10.6835324 5.83313725,10.2064578 7.96777778,10.2064578 C8.58885717,10.2044072 9.20925437,10.2471994 9.82398693,10.3344906 C10.4721292,10.4345129 11.1070857,10.6047299 11.7173203,10.8420492 C12.3439485,11.0762911 12.9307359,11.403166 13.4575163,11.8114403 C13.9989372,12.248179 14.44155,12.7917893 14.7568627,13.4072775 C15.1293883,14.1186121 15.3549434,14.8957227 15.4204575,15.6935773 L11.6013072,15.7484485 C11.5708084,14.9927451 11.15314,14.3039501 10.4922222,13.9194087 C9.72037592,13.487 8.84102208,13.2763195 7.95385621,13.3112529 C7.17227023,13.2657127 6.39396629,13.4435473 5.71248366,13.8233841 C5.23121916,14.0884165 4.9316842,14.5879022 4.92823529,15.1311475 C4.92823529,16.1371194 5.74960784,16.7803318 7.39235294,17.0607845 L11.963268,17.9753044 C12.4434063,18.0762742 12.9050574,18.2489797 13.3322222,18.4874356 C13.7572358,18.7170529 14.1412801,19.0136129 14.4691503,19.3653747 C14.7913891,19.735404 15.0429441,20.1598865 15.211634,20.618267 C15.4097196,21.1574908 15.5071927,21.7275725 15.4993464,22.3009836 C15.5730149,23.9104751 14.8017514,25.4442419 13.4575163,26.361452 C12.0653595,27.3277947 10.271024,27.810966 8.0745098,27.810966 C7.13549736,27.816666 6.1996642,27.702936 5.29019608,27.4725937 C4.44794982,27.2598226 3.64686279,26.9122564 2.91888889,26.4437588 C2.17073689,25.96111 1.55792156,25.300654 1.1369281,24.523267 C0.645873181,23.6377835 0.354619426,22.6582719 0.283071895,21.6516745 Z" id="Path" fill="#F0F0F0" fill-rule="evenodd"></path>
                <polygon id="Path" fill="#F0F0F0" fill-rule="evenodd" points="35.4489542 27.3399883 35.4489542 2.39188525 39.5929412 2.39188525 39.5929412 27.3399883"></polygon>
                <path d="M41.0361438,14.0337237 L41.0361438,10.6225644 L43.8575817,10.6225644 L43.8575817,4.55015222 L48.0015686,4.55015222 L48.0015686,10.6225644 L54.2013072,10.6225644 L54.2013072,14.0337237 L48.0015686,14.0337237 L48.0015686,20.824034 C48.0015686,22.9304781 49.0688889,23.9852244 51.2035294,23.9882728 C52.1716021,23.9715951 53.1330298,23.8270311 54.0620915,23.5584485 L54.6328758,27.0702049 C53.8925183,27.3073902 53.1377063,27.4982947 52.3729412,27.6417799 C51.726478,27.73879 51.0731723,27.7846624 50.419281,27.7789578 C48.4083878,27.7789578 46.8120479,27.1586085 45.6302614,25.9179098 C44.4484749,24.6772112 43.8575817,22.9868735 43.8575817,20.846897 L43.8575817,14.0337237 L41.0361438,14.0337237 Z" id="Path" fill="#F0F0F0" fill-rule="evenodd"></path>
                <path d="M74.248366,27.3399883 L74.248366,10.7140164 L78.3923529,10.7140164 L78.3923529,12.0857963 C79.8407612,10.8594806 81.6893928,10.1889729 83.5990196,10.1973126 C85.6239959,10.1238771 87.5809274,10.9235739 88.9588235,12.3875878 C90.3138562,13.8355777 90.9929194,15.7621663 90.9960131,18.1673536 L90.9960131,27.3399883 L86.8520261,27.3399883 L86.8520261,18.4188466 C86.8520261,16.9739052 86.4854248,15.8581909 85.7522222,15.0717037 C84.9672721,14.2581522 83.8594294,13.825179 82.7219608,13.8874005 C81.9305939,13.9006755 81.155824,14.1131765 80.4713072,14.5047014 C79.6620523,14.9564812 78.9484032,15.5572312 78.3691503,16.2742974 L78.3691503,27.3399883 L74.248366,27.3399883 Z" id="Path" fill="#F0F0F0" fill-rule="evenodd"></path>
                <path d="M111.335425,19.0498653 C111.259743,16.7219615 112.157272,14.465521 113.818105,12.808267 C115.470131,11.1560343 117.626427,10.3314422 120.286993,10.3344906 C121.749397,10.3168922 123.190433,10.6813441 124.463464,11.3907611 C125.711974,12.0936295 126.734702,13.1283249 127.414837,14.3766686 C128.159527,15.721466 128.547407,17.2298306 128.542484,18.7617916 C128.554142,19.386937 128.518466,20.0120687 128.435752,20.6319848 L115.479412,20.6319848 C115.705942,21.6818349 116.282617,22.6267463 117.117516,23.3161007 C118.053885,24.019968 119.212788,24.3746982 120.389085,24.3175 C122.059673,24.3175 123.205882,23.7916511 123.818431,22.7399532 L128.208366,22.7399532 C127.738236,24.2650058 126.716018,25.5667906 125.335882,26.3980328 C123.822963,27.3267831 122.069173,27.8032866 120.286993,27.7698126 C117.629521,27.7698126 115.473224,26.9467447 113.818105,25.3006089 C112.15207,23.6429518 111.253851,21.381469 111.335425,19.0498653 Z M115.446928,17.6094965 L124.324248,17.6094965 C124.244631,16.5409612 123.774782,15.5370443 123.001699,14.78363 C122.20336,14.073181 121.152775,13.7018208 120.07817,13.7502225 C118.950689,13.7008252 117.847737,14.0844046 117.001503,14.8202108 C116.200429,15.5672016 115.65681,16.5425869 115.446928,17.6094965 Z" id="Shape" fill="#518335" fill-rule="nonzero"></path>
                <path d="M128.120196,14.1297482 L128.120196,10.7140164 L130.941634,10.7140164 L130.941634,4.64160422 L135.085621,4.64160422 L135.085621,10.7140164 L141.285359,10.7140164 L141.285359,14.1297482 L135.085621,14.1297482 L135.085621,20.9154859 C135.085621,23.0219301 136.152941,24.0766764 138.287582,24.0797248 C139.255654,24.0630471 140.217082,23.9184831 141.146144,23.6499005 L141.716928,27.1616569 C140.976571,27.3988422 140.221759,27.5897467 139.456993,27.7332319 C138.81053,27.830242 138.157225,27.8761144 137.503333,27.8704098 C135.495534,27.8704098 133.899194,27.2500605 132.714314,26.0093618 C131.529434,24.7686632 130.93854,23.0783255 130.941634,20.9383489 L130.941634,14.1297482 L128.120196,14.1297482 Z" id="Path" fill="#518335" fill-rule="evenodd"></path>
                <path d="M109.43281,14.6738876 C108.703186,13.3688824 107.633002,12.2796331 106.332941,11.5187939 C105.038267,10.7488242 103.55263,10.3468476 102.040458,10.3573536 C100.203322,10.3099901 98.4003564,10.8524315 96.9033987,11.9028923 L96.9033987,2.39188525 L92.7594118,2.39188525 L92.7594118,27.3399883 L96.9033987,27.3399883 L96.9033987,26.1694028 C98.3985172,27.2254543 100.201363,27.7742786 102.040458,27.7332319 C103.55355,27.7412199 105.039314,27.3360432 106.332941,26.5626464 C107.634682,25.7978618 108.704996,24.7037437 109.43281,23.3938349 C110.955276,20.6677521 110.955276,17.3633896 109.43281,14.6373068 L109.43281,14.6738876 Z M102.007974,23.7550703 C100.038667,23.7569201 98.2622277,22.5894257 97.5073056,20.7971851 C96.7523835,19.0049445 97.1677148,16.9410673 98.5595612,15.5682847 C99.9514075,14.1955022 102.045545,13.7842818 103.865128,14.5264444 C105.68471,15.2686071 106.871241,17.0179308 106.871242,18.9584133 C106.858463,21.6003859 104.67994,23.7347559 101.998693,23.7322073 L102.007974,23.7550703 Z" id="Shape" fill="#518335" fill-rule="nonzero"></path>
                <path d="M67.9883007,10.7140164 L67.9883007,11.8800293 C66.4779046,10.8354669 64.6682211,10.2939395 62.8233987,10.3344906 C61.3129267,10.325778 59.8292668,10.7276542 58.5355556,11.4959309 C57.2313113,12.2616328 56.1605006,13.3594177 55.4356863,14.6738876 C53.9201867,17.4017303 53.9201867,20.702573 55.4356863,23.4304157 C56.1691557,24.7266301 57.2389306,25.807573 58.5355556,26.5626464 C59.8296448,27.3295401 61.3133373,27.729843 62.8233987,27.7195141 C64.6701027,27.7534428 66.4795755,27.2055706 67.9883007,26.155685 L67.9883007,27.3399883 L72.1322876,27.3399883 L72.1322876,10.7140164 L67.9883007,10.7140164 Z M63.2828105,23.7139169 C60.68404,23.7139169 58.5773203,21.6380332 58.5773203,19.0773009 C58.5773203,16.5165687 60.68404,14.440685 63.2828105,14.440685 C65.8815809,14.440685 67.9883007,16.5165687 67.9883007,19.0773009 C67.9895336,20.30738 67.494174,21.4874274 66.611456,22.357225 C65.728738,23.2270227 64.5311616,23.7151318 63.2828105,23.7139169 Z" id="Shape" fill="#F0F0F0" fill-rule="nonzero"></path>
            </g>
        </g>
    </g>
</svg>