<?xml version="1.0" encoding="UTF-8"?>
<svg width="29px" height="24px" viewBox="0 0 29 24" version="1.1" xmlns="http://www.w3.org/2000/svg" xmlns:xlink="http://www.w3.org/1999/xlink">
    <!-- Generator: Sketch 52.5 (67469) - http://www.bohemiancoding.com/sketch -->
    <title>Icon mobile/ icon-how-to-deposit</title>
    <desc>Created with Sketch.</desc>
    <defs>
        <path d="M22.1229081,10.8617353 C26.8182927,10.8617353 30.6521388,14.676021 30.6521388,19.3474496 C30.6521388,24.0188782 26.8613696,27.7903067 22.165985,27.7903067 C19.9690619,27.7903067 17.9875234,26.976021 16.4798311,25.6045924 C15.0152158,26.1617353 13.0336773,26.4617353 10.965985,26.4617353 C6.7013696,26.4617353 3.3413696,25.2188782 2.91060037,23.5474496 L2.86752345,23.5474496 L2.82444652,23.376021 L2.82444652,6.91887816 L2.86752345,6.91887816 C3.29829268,5.20459244 6.65829268,4.00459244 10.9229081,4.00459244 C15.1875234,4.00459244 18.5475234,5.24744959 18.9782927,6.91887816 L19.0213696,6.91887816 L19.0644465,7.09030673 L19.0644465,11.4617353 C20.0121388,11.076021 21.045985,10.8617353 22.1229081,10.8617353 Z M18.2890619,11.7617353 L18.2890619,11.676021 C18.2029081,11.7188782 18.1598311,11.8045924 18.0736773,11.8474496 C18.1598311,11.8045924 18.2029081,11.8045924 18.2890619,11.7617353 Z M10.9229081,9.83316387 C14.8429081,9.83316387 18.2890619,8.63316387 18.2890619,7.30459244 C18.2890619,5.97602102 14.8429081,4.77602102 10.9229081,4.77602102 C7.00290806,4.77602102 3.55675422,5.97602102 3.55675422,7.30459244 C3.55675422,8.63316387 7.00290806,9.83316387 10.9229081,9.83316387 Z M18.2890619,8.67602102 C17.0398311,9.83316387 14.1967542,10.5617353 10.9229081,10.5617353 C7.64906191,10.5617353 4.84906191,9.83316387 3.55675422,8.67602102 L3.55675422,10.3045924 C3.55675422,11.6331639 7.00290806,12.8331639 10.9229081,12.8331639 C14.8429081,12.8331639 18.2890619,11.6331639 18.2890619,10.3045924 L18.2890619,8.67602102 Z M14.3690619,15.8331639 C13.2921388,16.0474496 12.1290619,16.1331639 10.9229081,16.1331639 C7.64906191,16.1331639 4.84906191,15.4045924 3.55675422,14.2474496 L3.55675422,15.4474496 C3.55675422,16.776021 7.00290806,17.976021 10.9229081,17.976021 C11.9136773,17.976021 12.8613696,17.8903067 13.765985,17.7617353 C13.8952158,17.076021 14.1106004,16.4331639 14.3690619,15.8331639 Z M13.6798311,18.5331639 C12.7752158,18.6617353 11.8706004,18.7045924 10.965985,18.7045924 C7.69213883,18.7045924 4.89213883,17.976021 3.59983114,16.8188782 L3.59983114,18.0188782 C3.59983114,19.3474496 7.04598498,20.5474496 10.965985,20.5474496 C11.9136773,20.5474496 12.8182927,20.4617353 13.7229081,20.3331639 C13.6798311,19.9903067 13.6367542,19.6474496 13.6367542,19.3045924 C13.6367542,19.0474496 13.6367542,18.7903067 13.6798311,18.5331639 Z M13.8090619,21.0617353 C12.9044465,21.1903067 11.9136773,21.276021 10.8798311,21.2331639 C7.60598498,21.2331639 4.80598498,20.5045924 3.51367729,19.3474496 L3.51367729,20.5474496 C3.51367729,21.876021 6.95983114,23.076021 10.8798311,23.076021 C12.085985,23.076021 13.2921388,22.9903067 14.3690619,22.776021 C14.1536773,22.2188782 13.9382927,21.6617353 13.8090619,21.0617353 Z M3.55675422,23.1617353 C3.55675422,24.4903067 7.00290806,25.6903067 10.9229081,25.6474496 C12.7321388,25.6474496 14.4982927,25.3903067 15.8767542,24.9617353 C15.445985,24.5331639 15.0582927,24.0188782 14.7567542,23.4617353 C13.5506004,23.7188782 12.3013696,23.8474496 10.9229081,23.8474496 C7.64906191,23.8474496 4.84906191,23.1188782 3.55675422,21.9617353 L3.55675422,23.1617353 Z M22.1229081,27.1474496 C26.4736773,27.1474496 30.005985,23.6331639 30.005985,19.3045924 C30.005985,14.976021 26.4736773,11.4617353 22.1229081,11.4617353 C17.7721388,11.4617353 14.2398311,14.976021 14.2398311,19.3045924 C14.2398311,23.6331639 17.7721388,27.1474496 22.1229081,27.1474496 Z M14.8429081,14.976021 C15.445985,13.9474496 16.3075234,13.0474496 17.2982927,12.3617353 C15.7906004,13.0903067 13.5075234,13.5617353 10.9229081,13.5617353 C7.64906191,13.5617353 4.84906191,12.8331639 3.55675422,11.676021 L3.55675422,12.876021 C3.55675422,14.2045924 7.00290806,15.4045924 10.9229081,15.4045924 C12.3013696,15.4045924 13.6367542,15.2331639 14.8429081,14.976021 Z M15.8336773,17.076021 C15.6613696,16.9903067 15.5752158,16.8188782 15.7044465,16.7331639 C15.7475234,16.5617353 15.7906004,16.4331639 15.8767542,16.3045924 C15.9198311,16.2188782 15.9629081,16.176021 16.0490619,16.1331639 C16.1352158,16.0903067 16.2213696,16.0903067 16.3075234,16.1331639 C16.4367542,16.2188782 16.5229081,16.3903067 16.4367542,16.5617353 C16.3936773,16.6903067 16.3075234,16.8188782 16.2644465,16.9474496 C16.2213696,17.0331639 16.0921388,17.1188782 15.9629081,17.1188782 C15.9198311,17.1188782 15.8767542,17.076021 15.8336773,17.076021 Z M16.3936773,15.876021 C16.3075234,15.8331639 16.2644465,15.7903067 16.2644465,15.6617353 C16.2644465,15.6188782 16.2644465,15.5331639 16.3075234,15.4474496 C16.3936773,15.3188782 16.4798311,15.1903067 16.565985,15.0617353 C16.6521388,14.9331639 16.8675234,14.9331639 16.9967542,15.0188782 C17.0829081,15.0617353 17.125985,15.1474496 17.125985,15.2331639 C17.1690619,15.3188782 17.125985,15.3617353 17.0829081,15.4474496 C16.9967542,15.576021 16.9106004,15.6617353 16.8244465,15.7903067 C16.7813696,15.876021 16.6521388,15.9188782 16.565985,15.9188782 C16.5229081,15.9188782 16.4367542,15.9188782 16.3936773,15.876021 Z M15.4890619,18.3188782 C15.3598311,18.276021 15.2306004,18.1474496 15.2306004,17.9331639 C15.2306004,17.8045924 15.2736773,17.6331639 15.3167542,17.5045924 C15.3598311,17.3331639 15.5321388,17.2474496 15.7044465,17.2903067 C15.8767542,17.3331639 15.9629081,17.5045924 15.9198311,17.676021 C15.8767542,17.8045924 15.8767542,17.9331639 15.8336773,18.0617353 C15.7906004,18.2331639 15.6613696,18.3188782 15.5321388,18.3188782 C15.5321388,18.3188782 15.4890619,18.3188782 15.4890619,18.3188782 Z M15.6182927,20.9331639 C15.6182927,20.9331639 15.6182927,20.9331639 15.5752158,20.8903067 C15.445985,20.8903067 15.3167542,20.7617353 15.2736773,20.6331639 C15.2306004,20.5045924 15.1875234,20.376021 15.1875234,20.2045924 C15.1444465,20.1188782 15.1875234,20.076021 15.2306004,19.9903067 C15.2736773,19.9045924 15.3598311,19.8617353 15.445985,19.8617353 C15.5321388,19.8188782 15.5752158,19.8617353 15.6613696,19.9045924 C15.7475234,19.9474496 15.7906004,20.0331639 15.7906004,20.1188782 C15.8336773,20.2903067 15.8336773,20.4188782 15.8767542,20.5474496 C15.8767542,20.7188782 15.7906004,20.8903067 15.6182927,20.9331639 Z M15.445985,19.6045924 C15.2736773,19.6045924 15.1444465,19.476021 15.1013696,19.3903067 C15.1013696,19.2188782 15.1013696,19.0474496 15.1013696,18.9188782 C15.1444465,18.7474496 15.2736773,18.6188782 15.445985,18.6188782 C15.5321388,18.6188782 15.6182927,18.6617353 15.6613696,18.7045924 C15.7044465,18.7474496 15.7475234,18.8331639 15.7475234,18.9188782 C15.7475234,19.0474496 15.7475234,19.176021 15.7475234,19.3045924 C15.7475234,19.476021 15.6182927,19.6045924 15.445985,19.6045924 Z M17.3844465,14.9331639 C17.2982927,14.9331639 17.2121388,14.8903067 17.1690619,14.8045924 C17.125985,14.7617353 17.0829081,14.676021 17.0829081,14.5903067 C17.0829081,14.5045924 17.125985,14.4188782 17.1690619,14.376021 C17.2982927,14.2903067 17.3844465,14.1617353 17.5136773,14.076021 C17.6429081,13.9903067 17.8152158,13.9903067 17.9444465,14.1188782 C18.0306004,14.2474496 18.0306004,14.4188782 17.9013696,14.5474496 C17.8152158,14.676021 17.685985,14.7617353 17.5998311,14.8474496 C17.5567542,14.8903067 17.4706004,14.9331639 17.3844465,14.9331639 Z M20.7875234,13.0903067 C20.6582927,13.0903067 20.5290619,13.0045924 20.485985,12.8331639 C20.485985,12.7903067 20.485985,12.7045924 20.5290619,12.6188782 C20.5721388,12.5331639 20.6582927,12.4903067 20.7444465,12.4903067 C20.8736773,12.4474496 21.0029081,12.4045924 21.1752158,12.4045924 C21.3475234,12.3617353 21.4767542,12.4903067 21.5198311,12.6617353 C21.5629081,12.8331639 21.4336773,12.9617353 21.2613696,13.0045924 C21.0890619,13.0474496 20.9598311,13.0474496 20.8306004,13.0903067 C20.8306004,13.0903067 20.7875234,13.0903067 20.7875234,13.0903067 Z M22.1229081,12.9617353 C21.9506004,12.9617353 21.7782927,12.8331639 21.7352158,12.6188782 C21.7352158,12.4903067 21.8213696,12.3617353 21.9506004,12.3188782 L21.9936773,12.3188782 C21.9936773,12.3188782 22.0367542,12.3188782 22.0367542,12.3188782 C22.165985,12.3188782 22.2952158,12.3188782 22.4244465,12.3188782 L22.5106004,12.3188782 C22.6829081,12.3617353 22.8121388,12.4903067 22.8121388,12.6617353 C22.8121388,12.8331639 22.6829081,12.9617353 22.5106004,12.9617353 C22.3813696,12.9617353 22.2521388,12.9617353 22.1229081,12.9617353 Z M18.4182927,14.1188782 C18.2890619,14.1188782 18.2029081,14.0331639 18.1167542,14.0331639 C18.0736773,13.9903067 18.0736773,13.9045924 18.0736773,13.8188782 C18.0736773,13.7331639 18.1167542,13.6474496 18.2029081,13.6045924 C18.3321388,13.5188782 18.4613696,13.4331639 18.5906004,13.3474496 C18.7629081,13.2617353 18.9352158,13.3474496 19.0213696,13.476021 C19.0644465,13.5188782 19.0644465,13.6045924 19.0644465,13.6903067 C19.0644465,13.7331639 19.0213696,13.8188782 18.9352158,13.8617353 C18.805985,13.9045924 18.7198311,13.9903067 18.5906004,14.076021 C18.5475234,14.1188782 18.4613696,14.1188782 18.4182927,14.1188782 Z M18.5906004,24.576021 C18.6767542,24.6188782 18.7198311,24.7045924 18.7198311,24.7474496 C18.7198311,24.7903067 18.7198311,24.876021 18.6767542,24.9617353 C18.6336773,25.0474496 18.5044465,25.0903067 18.4182927,25.0903067 C18.3752158,25.0903067 18.2890619,25.0903067 18.245985,25.0474496 C18.1167542,24.9617353 17.9875234,24.876021 17.8582927,24.7903067 C17.7290619,24.7045924 17.7290619,24.4903067 17.8152158,24.3617353 C17.9013696,24.2331639 18.1167542,24.2331639 18.245985,24.3188782 C18.3752158,24.4045924 18.4613696,24.4903067 18.5906004,24.576021 Z M25.9998311,13.5188782 C26.1290619,13.6045924 26.2582927,13.6903067 26.3875234,13.776021 C26.5167542,13.8617353 26.5167542,14.076021 26.4306004,14.2045924 C26.3444465,14.2903067 26.2582927,14.3331639 26.1721388,14.3331639 C26.1290619,14.3331639 26.0429081,14.3331639 25.9998311,14.2903067 C25.8706004,14.2045924 25.7844465,14.1188782 25.6552158,14.0331639 C25.5690619,13.9903067 25.525985,13.9045924 25.525985,13.8188782 C25.525985,13.776021 25.525985,13.6903067 25.5690619,13.6045924 C25.6552158,13.476021 25.8706004,13.4331639 25.9998311,13.5188782 Z M27.3782927,14.7188782 C27.4213696,14.7617353 27.4644465,14.8045924 27.4644465,14.8903067 C27.4644465,14.976021 27.4213696,15.0617353 27.3782927,15.1045924 C27.2921388,15.1474496 27.2490619,15.1903067 27.1629081,15.1903067 C27.0767542,15.1903067 26.9906004,15.1903067 26.9475234,15.1045924 C26.8613696,15.0188782 26.7321388,14.8903067 26.645985,14.8045924 C26.6029081,14.7617353 26.5598311,14.676021 26.5598311,14.5903067 C26.5598311,14.5045924 26.6029081,14.4188782 26.645985,14.376021 C26.7752158,14.2474496 26.9475234,14.2474496 27.0767542,14.376021 C27.1629081,14.5045924 27.2921388,14.5903067 27.3782927,14.7188782 Z M25.1813696,13.0474496 C25.3536773,13.1331639 25.3967542,13.3045924 25.3106004,13.5188782 C25.2244465,13.6045924 25.1382927,13.6903067 25.0090619,13.6903067 C24.965985,13.6903067 24.9229081,13.6474496 24.8798311,13.6474496 C24.7506004,13.6045924 24.6213696,13.5188782 24.4921388,13.476021 C24.405985,13.4331639 24.3629081,13.3903067 24.3198311,13.3045924 C24.2767542,13.2188782 24.2767542,13.1331639 24.3198311,13.0474496 C24.3629081,12.9617353 24.405985,12.9188782 24.4921388,12.876021 C24.5782927,12.8331639 24.6644465,12.8331639 24.7506004,12.876021 C24.9229081,12.9188782 25.0521388,12.9617353 25.1813696,13.0474496 Z M23.8890619,12.576021 C23.9752158,12.6188782 24.0613696,12.6617353 24.1044465,12.7474496 C24.1475234,12.8331639 24.1475234,12.9188782 24.1475234,13.0045924 C24.1044465,13.1331639 23.9752158,13.2188782 23.845985,13.2188782 C23.8029081,13.2188782 23.8029081,13.2188782 23.7598311,13.2188782 C23.6306004,13.176021 23.5013696,13.176021 23.3721388,13.1331639 C23.1998311,13.0903067 23.0706004,12.9188782 23.1136773,12.7474496 C23.1136773,12.6617353 23.1567542,12.576021 23.2429081,12.5331639 C23.285985,12.4903067 23.3721388,12.4903067 23.4582927,12.4903067 C23.5875234,12.4903067 23.7598311,12.5331639 23.8890619,12.576021 Z M28.1967542,16.0474496 C28.1536773,16.1331639 28.1106004,16.176021 28.0244465,16.2617353 C27.9813696,16.3045924 27.8952158,16.3045924 27.8521388,16.3045924 C27.765985,16.3045924 27.6367542,16.2188782 27.5936773,16.1331639 C27.5506004,16.0045924 27.4644465,15.9188782 27.3782927,15.7903067 C27.2921388,15.6617353 27.3352158,15.4474496 27.4644465,15.3617353 C27.5075234,15.3188782 27.5936773,15.3188782 27.6798311,15.3188782 C27.765985,15.3188782 27.8521388,15.3617353 27.8952158,15.4474496 C27.9813696,15.576021 28.0675234,15.7045924 28.1536773,15.8331639 C28.1967542,15.876021 28.1967542,15.9617353 28.1967542,16.0474496 Z M28.5413696,17.4188782 C28.4982927,17.4617353 28.4552158,17.4617353 28.4121388,17.4188782 C28.2829081,17.4188782 28.1536773,17.3331639 28.1106004,17.2045924 C28.0675234,17.076021 28.0244465,16.9474496 27.9813696,16.8188782 C27.9382927,16.6903067 27.9813696,16.5188782 28.1536773,16.4331639 C28.2829081,16.3903067 28.4552158,16.4331639 28.5413696,16.6045924 C28.6275234,16.7331639 28.6706004,16.9045924 28.7136773,17.0331639 C28.7998311,17.2045924 28.7136773,17.376021 28.5413696,17.4188782 Z M28.7567542,18.7045924 C28.5844465,18.7045924 28.4552158,18.6188782 28.4121388,18.4903067 C28.3690619,18.3188782 28.3690619,18.1903067 28.325985,18.0617353 C28.325985,17.8903067 28.4121388,17.7188782 28.5844465,17.676021 C28.7567542,17.676021 28.9290619,17.7617353 28.9721388,17.9331639 C29.0152158,18.0617353 29.0582927,18.1903067 29.0582927,18.3617353 C29.1013696,18.5331639 28.9721388,18.6617353 28.7567542,18.7045924 Z M16.2644465,21.9617353 C16.2213696,22.0474496 16.1352158,22.1331639 16.1352158,22.1331639 C16.0921388,22.176021 16.0490619,22.176021 16.005985,22.176021 C15.8767542,22.176021 15.7475234,22.1331639 15.7044465,22.0045924 C15.6182927,21.876021 15.5752158,21.7045924 15.5321388,21.576021 C15.4890619,21.4903067 15.4890619,21.4045924 15.5321388,21.3188782 C15.5752158,21.2331639 15.6182927,21.1903067 15.7044465,21.1474496 C15.7906004,21.1045924 15.8767542,21.1045924 15.9629081,21.1474496 C16.0490619,21.1903067 16.0921388,21.2331639 16.1352158,21.3188782 C16.1782927,21.4474496 16.2213696,21.576021 16.2644465,21.7045924 C16.3075234,21.7903067 16.3075234,21.876021 16.2644465,21.9617353 Z M19.7106004,25.176021 C19.8398311,25.2188782 19.925985,25.3903067 19.8829081,25.6045924 C19.8398311,25.6903067 19.7106004,25.776021 19.5813696,25.776021 C19.5382927,25.776021 19.4952158,25.7331639 19.4521388,25.7331639 C19.2798311,25.6903067 19.1506004,25.6474496 19.0213696,25.5617353 C18.8921388,25.476021 18.805985,25.3045924 18.8921388,25.1331639 C18.9782927,25.0045924 19.1506004,24.9188782 19.3229081,25.0045924 C19.4521388,25.0474496 19.5813696,25.1331639 19.7106004,25.176021 Z M17.3413696,23.5045924 C17.4275234,23.5903067 17.5136773,23.676021 17.5998311,23.8045924 C17.7290619,23.9331639 17.7290619,24.1045924 17.5998311,24.2331639 C17.5567542,24.276021 17.4706004,24.3188782 17.3844465,24.3188782 C17.2982927,24.3188782 17.2121388,24.276021 17.1690619,24.2331639 C17.0829081,24.1045924 16.9536773,24.0188782 16.8675234,23.8903067 C16.7813696,23.7617353 16.7813696,23.5903067 16.9106004,23.4617353 C17.0398311,23.376021 17.2121388,23.376021 17.3413696,23.5045924 Z M16.8244465,22.8188782 C16.8675234,22.9045924 16.9106004,22.9903067 16.9536773,23.0331639 C16.9536773,23.1188782 16.9106004,23.2045924 16.8244465,23.2474496 C16.7813696,23.2903067 16.6952158,23.2903067 16.6521388,23.2903067 C16.565985,23.2903067 16.4367542,23.2474496 16.3936773,23.1617353 C16.3075234,23.0331639 16.2213696,22.9045924 16.1352158,22.776021 C16.0921388,22.7331639 16.0921388,22.6474496 16.0921388,22.5617353 C16.0921388,22.5188782 16.1352158,22.4331639 16.2213696,22.3903067 C16.2644465,22.3474496 16.3506004,22.3474496 16.4367542,22.3474496 C16.4798311,22.3474496 16.565985,22.3903067 16.6090619,22.476021 C16.6521388,22.6045924 16.7382927,22.6903067 16.8244465,22.8188782 Z M20.8736773,25.5188782 C20.9598311,25.5188782 21.045985,25.5617353 21.045985,25.6474496 C21.0890619,25.6903067 21.0890619,25.776021 21.0890619,25.8617353 C21.045985,26.0331639 20.9167542,26.1188782 20.7875234,26.1188782 C20.7875234,26.1188782 20.7444465,26.1188782 20.7444465,26.1188782 C20.6152158,26.1188782 20.4429081,26.076021 20.3136773,26.0331639 C20.1413696,25.9903067 20.0552158,25.8188782 20.0982927,25.6474496 C20.1413696,25.476021 20.3136773,25.3903067 20.485985,25.4331639 C20.6152158,25.476021 20.7444465,25.476021 20.8736773,25.5188782 Z M20.2706004,12.9188782 C20.3136773,13.0903067 20.2275234,13.2617353 20.0982927,13.2617353 C19.9690619,13.3045924 19.8398311,13.3474496 19.7106004,13.3903067 C19.6675234,13.4331639 19.6244465,13.4331639 19.5813696,13.4331639 C19.4521388,13.4331639 19.3229081,13.3903067 19.2798311,13.2617353 C19.2367542,13.1331639 19.2798311,12.9617353 19.4521388,12.876021 C19.5813696,12.7903067 19.7536773,12.7474496 19.8829081,12.7045924 C20.0552158,12.6617353 20.2275234,12.7474496 20.2706004,12.9188782 Z M22.1229081,25.6474496 C22.2952158,25.6474496 22.4244465,25.776021 22.4675234,25.9903067 C22.4675234,26.1188782 22.3813696,26.2474496 22.2521388,26.2903067 L22.0798311,26.2903067 C21.9506004,26.2903067 21.8644465,26.2903067 21.7352158,26.2903067 C21.5629081,26.2474496 21.4336773,26.1188782 21.4336773,25.9474496 C21.4336773,25.8617353 21.4767542,25.776021 21.5198311,25.7331639 C21.5629081,25.6474496 21.6490619,25.6474496 21.7352158,25.6474496 C21.8644465,25.6474496 21.9936773,25.6474496 22.1229081,25.6474496 Z M22.4675234,18.576021 C23.5013696,19.0045924 23.9321388,19.5188782 23.9321388,20.3331639 C23.9321388,21.0188782 23.4582927,21.7474496 22.4675234,21.9617353 L22.4675234,22.3903067 C22.4675234,22.6474496 22.2521388,22.776021 22.0798311,22.776021 C21.9936773,22.776021 21.9075234,22.776021 21.8213696,22.6903067 C21.7352158,22.6474496 21.6921388,22.5617353 21.6921388,22.3903067 L21.6921388,22.0045924 C21.1752158,21.9617353 20.6582927,21.7903067 20.3136773,21.576021 L20.2706004,21.5331639 L20.5721388,20.7188782 L20.6582927,20.8045924 C21.045985,21.0617353 21.5198311,21.1903067 21.9506004,21.1903067 C22.5106004,21.1903067 22.9413696,20.8474496 22.9413696,20.376021 C22.9413696,19.9474496 22.6398311,19.6903067 21.9506004,19.3903067 C21.1321388,19.0903067 20.3567542,18.6617353 20.3567542,17.7188782 C20.3567542,16.9474496 20.8736773,16.3474496 21.7352158,16.176021 L21.7352158,15.7474496 C21.7352158,15.276021 22.5106004,15.276021 22.5106004,15.7474496 L22.5106004,16.1331639 C22.9413696,16.176021 23.3290619,16.2617353 23.6736773,16.476021 L23.7598311,16.5188782 L23.4582927,17.2903067 L23.3721388,17.2474496 C23.1998311,17.1617353 22.8552158,16.9474496 22.2521388,16.9474496 C21.605985,16.9474496 21.3906004,17.3331639 21.3906004,17.6331639 C21.3906004,18.0188782 21.6490619,18.2331639 22.4675234,18.576021 Z" id="path-1"></path>
        <rect id="path-3" x="0" y="0" width="32" height="32"></rect>
        <filter x="-46.9%" y="-46.9%" width="193.8%" height="193.8%" filterUnits="objectBoundingBox" id="filter-4">
            <feOffset dx="0" dy="0" in="SourceAlpha" result="shadowOffsetOuter1"></feOffset>
            <feGaussianBlur stdDeviation="5" in="shadowOffsetOuter1" result="shadowBlurOuter1"></feGaussianBlur>
            <feColorMatrix values="0 0 0 0 0   0 0 0 0 0   0 0 0 0 0  0 0 0 0 0" type="matrix" in="shadowBlurOuter1"></feColorMatrix>
        </filter>
    </defs>
    <g id="Playground" stroke="none" stroke-width="1" fill="none" fill-rule="evenodd">
        <g transform="translate(-383.000000, -110.000000)" id="Icon-mobile/-icon-how-to-deposit">
            <g transform="translate(381.000000, 106.000000)">
                <mask id="mask-2" fill="white">
                    <use xlink:href="#path-1"></use>
                </mask>
                <g id="Shape"></g>
                <g id="↳-Color" stroke-width="1" fill-rule="evenodd" mask="url(#mask-2)">
                    <g id="BG">
                        <use fill="black" fill-opacity="1" filter="url(#filter-4)" xlink:href="#path-3"></use>
                        <use fill="#555555" fill-rule="evenodd" xlink:href="#path-3"></use>
                    </g>
                </g>
            </g>
        </g>
    </g>
</svg>