<?xml version="1.0" encoding="UTF-8"?>
<svg width="28px" height="28px" viewBox="0 0 28 28" version="1.1" xmlns="http://www.w3.org/2000/svg" xmlns:xlink="http://www.w3.org/1999/xlink">
    <!-- Generator: Sketch 52.5 (67469) - http://www.bohemiancoding.com/sketch -->
    <title>Icon mobile/ icon-promotions</title>
    <desc>Created with Sketch.</desc>
    <defs>
        <path d="M16.8878049,2.43773879 L18.9944976,5.05762183 L22.1326829,3.8262768 C22.2476059,3.77922807 22.3810224,3.75191033 22.5208039,3.75191033 C22.9699512,3.75191033 23.3531551,4.03392982 23.5027161,4.43037817 L23.5050927,4.43758285 C23.5050927,4.53364522 23.5575415,4.62097466 23.5837659,4.70830409 L24.0907707,7.98315789 L27.377561,8.48966862 C27.8849483,8.58226511 28.2644644,9.02046784 28.2644644,9.54722807 C28.2644644,9.60549318 28.2598205,9.66266667 28.2508878,9.71842105 L28.2517073,9.7122807 C28.2438127,9.79281481 28.2252644,9.86679922 28.1973463,9.9360078 L28.1992585,9.93060429 L26.9754537,13.065731 L29.5978927,15.1703704 C29.8397854,15.3656608 29.9931707,15.6620078 29.9931707,15.9941598 C29.9931707,16.2530916 29.8999376,16.4903002 29.7451863,16.6740468 L29.7464976,16.6724366 C29.6994849,16.7365965 29.6446322,16.7913957 29.5825132,16.8368889 L29.5804098,16.8383626 L26.9579707,18.9255361 L28.1817756,22.0606628 C28.2263571,22.1751462 28.252199,22.3076686 28.252199,22.4462222 C28.252199,22.901345 27.973401,23.2914074 27.5771122,23.4552865 L27.5698732,23.4579337 C27.4950244,23.4807758 27.4061073,23.4991969 27.3147863,23.5096764 L27.3076293,23.5103314 L24.0295805,24.0168421 L23.5400585,27.3528265 C23.4442576,27.8610292 23.0034146,28.2403392 22.4739005,28.2403392 C22.4120546,28.2403392 22.3514107,28.235154 22.2924059,28.2252203 L22.2987707,28.2260936 L22.1326829,28.1736959 L19.003239,26.9685497 L16.8965463,29.5884327 C16.6962302,29.8327641 16.3942673,29.9874464 16.0561093,29.9874464 C15.8013502,29.9874464 15.5671063,29.8996257 15.3820605,29.7526667 L15.3842732,29.7543587 C15.3230829,29.6932281 15.2618927,29.6495634 15.2094439,29.5884327 L13.1202341,26.9685497 L9.93834146,28.1736959 C9.82617756,28.2170331 9.69636683,28.2421404 9.56068293,28.2421404 C9.10568976,28.2421404 8.71672195,27.9598207 8.55970341,27.5609435 L8.55716293,27.5536569 C8.52842537,27.4800273 8.50689951,27.3943899 8.49643707,27.3053411 L8.49597268,27.3004016 L7.9889678,24.0168148 L4.64972878,23.5103041 C4.14231415,23.4135049 3.76397268,22.9737193 3.76397268,22.4456764 C3.76397268,22.389922 3.76817951,22.3351774 3.77632,22.2816881 L3.77558244,22.287692 C3.79112585,22.202191 3.81538341,22.1260507 3.84802732,22.0545224 L3.84551415,22.0606355 L5.0518361,18.9255088 L2.42065561,16.8732671 C2.17971902,16.6747836 2.02728976,16.3765263 2.02728976,16.0427096 C2.02728976,15.787653 2.11626146,15.5533645 2.26492098,15.3691267 L2.26330927,15.3712008 C2.31701463,15.2786862 2.37481756,15.1986706 2.43961366,15.1249591 L2.43813854,15.1266784 L5.06057756,13.0307719 L3.83677268,9.930577 C3.78872195,9.81418324 3.76083122,9.67906823 3.76083122,9.5374308 C3.76083122,9.08984016 4.03938341,8.70725536 4.43272195,8.55325536 L4.43990634,8.55077193 C4.51644878,8.51442105 4.60539317,8.48958674 4.69911805,8.48112671 L4.70215024,8.48090838 L7.98894049,7.9831306 L8.50468683,4.6471462 C8.5892878,4.14099025 9.02444878,3.75993372 9.54871805,3.75993372 C9.6091161,3.75993372 9.66833951,3.76498246 9.72597854,3.77469786 L9.71975024,3.77382456 C9.80306732,3.78670565 9.87674146,3.80496296 9.94771122,3.82900585 L9.93828683,3.82622222 L13.0764722,5.02263548 L15.1831649,2.40275244 C15.380121,2.16868226 15.6733698,2.02095906 16.00112,2.02095906 C16.2589385,2.02095906 16.4953678,2.11235478 16.679758,2.26447173 L16.6779551,2.26302534 C16.7447454,2.31340351 16.8023571,2.37095906 16.8512,2.43550097 L16.8527844,2.43768421 L16.8878049,2.43773879 Z M16.0136585,21.1175049 C15.41984,21.1175049 14.9384585,21.5984172 14.9384585,22.1916569 C14.9384585,22.7848967 15.41984,23.265809 16.0136585,23.265809 C16.6074771,23.265809 17.0888585,22.7848967 17.0888585,22.1916569 C17.0888585,21.5984172 16.6074771,21.1175049 16.0136585,21.1175049 Z M13.4698927,13.380117 C13.4698927,13.3780975 13.4698927,13.3756959 13.4698927,13.3732943 C13.4698927,12.6946901 13.7436644,12.0799727 14.1868839,11.6333372 L14.18672,11.633501 C14.4277385,11.3927719 14.719321,11.2025302 15.0442029,11.0801053 L15.0608663,11.0745926 C15.3613268,10.9371852 15.7119415,10.8542495 16.0811863,10.8475634 L16.0836176,10.8475361 C16.7665171,10.8480819 17.3845932,11.1249981 17.8318829,11.5723431 L17.8319102,11.5723704 C18.0153717,11.7575361 18.1748488,11.9669357 18.3049873,12.195193 L18.3126907,12.2098752 C18.4921093,12.5344678 18.5976624,12.9214464 18.5976624,13.3330682 C18.5976624,13.4482339 18.5893854,13.561462 18.5734322,13.6722066 L18.5749346,13.6595439 C18.5060956,14.1700117 18.2717424,14.6162105 17.9284761,14.9516374 L17.9280663,14.9520195 C17.7626341,15.1335556 17.5655961,15.2829708 17.3450927,15.392269 L17.3336468,15.3973996 C16.7085776,15.6942924 16.1834341,16.1071423 15.7663298,16.6123158 L15.7601834,16.6200117 C15.2693502,17.3161637 14.975719,18.1818168 14.975719,19.1159688 C14.975719,19.1995049 14.9780683,19.2824678 14.9827122,19.3648577 L14.9821932,19.353423 C14.9821932,19.9466628 15.4635746,20.427575 16.0573932,20.427575 C16.6512117,20.427575 17.1325932,19.9466628 17.1325932,19.353423 C17.1259824,19.2880078 17.12224,19.2120312 17.12224,19.1351813 C17.12224,18.6820507 17.2530888,18.2594581 17.4791102,17.9030448 L17.4735102,17.9124873 C17.720402,17.6594776 18.0093893,17.4489318 18.3294088,17.2918207 L18.3476566,17.2837154 C18.7623844,17.0527018 19.1189268,16.7799883 19.4310244,16.4634191 L19.431598,16.4628187 C20.1026966,15.8032904 20.5612683,14.9298051 20.6965151,13.9531072 L20.6991102,13.9302651 C20.7230946,13.7557427 20.7367805,13.5540663 20.7367805,13.3491696 C20.7367805,12.5497232 20.5283785,11.7988811 20.1629307,11.147922 L20.1746498,11.1706277 C19.9407883,10.743232 19.6647493,10.3756023 19.3438829,10.0524834 L19.3442107,10.0528109 C18.5185522,9.21177388 17.369241,8.69047173 16.098041,8.69047173 C16.0960468,8.69047173 16.09408,8.69047173 16.0920859,8.69047173 L16.0923863,8.69047173 C16.0647415,8.68984405 16.0321795,8.68946199 15.9995356,8.68946199 C15.3687024,8.68946199 14.7695024,8.82487719 14.2295259,9.06819883 L14.2567063,9.05725536 C13.6488468,9.30587135 13.1291668,9.65134113 12.6911376,10.0798285 L12.6919844,10.0790097 C11.8548254,10.9137427 11.3368937,12.0678012 11.3368937,13.3427018 C11.3368937,13.3558285 11.3369483,13.3689552 11.3370576,13.3820819 L11.3370576,13.3800624 C11.3370576,13.9684717 11.8145327,14.4454815 12.4035161,14.4454815 C12.9924995,14.4454815 13.4699746,13.9684717 13.4699746,13.3800624 L13.4698927,13.380117 Z M17.7619512,6.98760234 L16.0136585,4.80436647 L14.2653659,6.98760234 C14.061881,7.23146979 13.7577327,7.38555166 13.4175532,7.38555166 C13.2826341,7.38555166 13.1533971,7.36131774 13.0339395,7.31697076 L13.041561,7.31945419 L10.419122,6.28896686 L9.97330732,9.05730994 C9.8907278,9.50244444 9.54472976,9.84810526 9.10585366,9.92956725 L9.09916098,9.93060429 L6.31063415,10.4109162 L7.31590244,12.9784016 C7.36999024,13.1034191 7.40145951,13.2489591 7.40145951,13.4018674 C7.40145951,13.7452904 7.24272,14.0516803 6.99454439,14.2517739 L6.99246829,14.2534113 L4.80710244,16 L6.99246829,17.7465887 C7.24102634,17.94177 7.39921951,18.2421559 7.39921951,18.5794386 C7.39921951,18.7197934 7.37182049,18.8537349 7.32210341,18.976269 L7.3246439,18.9692008 L6.31063415,21.5890838 L9.07293659,22.025731 C9.51850537,22.10823 9.86450341,22.4538908 9.94604488,22.8923392 L9.94708293,22.8990253 L10.3928976,25.6673684 L12.9803707,24.7329435 C13.1068215,24.6764795 13.2543883,24.6436218 13.4096585,24.6436218 C13.7525698,24.6436218 14.058002,24.8040078 14.2548761,25.05377 L14.2566244,25.0560624 L16.0049171,27.2218324 L17.7532098,25.0560624 C17.958361,24.8062183 18.267399,24.6480975 18.6134244,24.6480975 C18.750201,24.6480975 18.8811863,24.6727953 19.0021737,24.7179883 L18.9944976,24.7154776 L21.6169366,25.7197661 L22.0452683,22.9688889 C22.1278478,22.5237544 22.4738459,22.1780936 22.912722,22.0966316 L22.9194146,22.0955945 L25.6904585,21.6589474 L24.755122,19.0303314 C24.690681,18.8958986 24.653038,18.7381326 24.653038,18.5715789 C24.653038,18.2418012 24.8006049,17.9464639 25.0333463,17.7478441 L25.0348488,17.7465887 L27.2202146,16 L25.0348488,14.2534113 C24.7892956,14.0500975 24.6340527,13.745345 24.6340527,13.4043782 C24.6340527,13.2671072 24.6592117,13.1356764 24.7051863,13.0145068 L24.7026732,13.0220663 L25.7166829,10.4021832 L22.945639,9.96553606 C22.4975844,9.88797661 22.1491278,9.53985965 22.0724215,9.09860039 L22.0714927,9.09224172 L21.6344195,6.31516569 L19.0469463,7.26705653 C18.9134205,7.32900585 18.7571395,7.3651384 18.5923902,7.3651384 C18.2616351,7.3651384 17.9649444,7.21948928 17.7630439,6.98888499 L17.7619512,6.98760234 Z" id="path-1"></path>
        <rect id="path-3" x="0" y="0" width="32" height="32"></rect>
        <filter x="-46.9%" y="-46.9%" width="193.8%" height="193.8%" filterUnits="objectBoundingBox" id="filter-4">
            <feOffset dx="0" dy="0" in="SourceAlpha" result="shadowOffsetOuter1"></feOffset>
            <feGaussianBlur stdDeviation="5" in="shadowOffsetOuter1" result="shadowBlurOuter1"></feGaussianBlur>
            <feColorMatrix values="0 0 0 0 0   0 0 0 0 0   0 0 0 0 0  0 0 0 0 0" type="matrix" in="shadowBlurOuter1"></feColorMatrix>
        </filter>
    </defs>
    <g id="Playground" stroke="none" stroke-width="1" fill="none" fill-rule="evenodd">
        <g transform="translate(-697.000000, -108.000000)" id="Icon-mobile/-icon-promotions">
            <g transform="translate(695.000000, 106.000000)">
                <mask id="mask-2" fill="white">
                    <use xlink:href="#path-1"></use>
                </mask>
                <g id="Shape"></g>
                <g id="↳-Color" stroke-width="1" fill-rule="evenodd" mask="url(#mask-2)">
                    <g id="BG">
                        <use fill="black" fill-opacity="1" filter="url(#filter-4)" xlink:href="#path-3"></use>
                        <use fill="#555555" fill-rule="evenodd" xlink:href="#path-3"></use>
                    </g>
                </g>
            </g>
        </g>
    </g>
</svg>