<?xml version="1.0" encoding="UTF-8"?>
<svg width="24px" height="26px" viewBox="0 0 24 26" version="1.1" xmlns="http://www.w3.org/2000/svg" xmlns:xlink="http://www.w3.org/1999/xlink">
    <!-- Generator: Sketch 52.5 (67469) - http://www.bohemiancoding.com/sketch -->
    <title>Icon mobile/ icon-live-chat</title>
    <desc>Created with Sketch.</desc>
    <defs>
        <path d="M7.93680672,3 L21.4655462,3 C23.6387311,3.01372293 25.3967815,4.7826361 25.4104202,6.96792976 L25.4104202,11.6528 C25.3967563,13.8377639 23.6377479,15.6047746 21.4664286,15.6139317 L12.5915966,15.6139317 L11.3008403,18.1545756 C11.0865546,18.5559649 10.6722269,18.8242595 10.1956303,18.8242595 C9.71903361,18.8242595 9.30470588,18.5559649 9.09369748,18.1612976 L9.09042017,18.154601 L7.82386555,15.6139571 C5.70546218,15.5335473 4.01638655,13.7943376 4,11.6544234 L4,6.96927415 C4.00910084,4.78365073 5.7652605,3.01377366 7.9354958,3.00002537 L7.93680672,3.00002537 L7.93680672,3 Z M21.4655462,5.02115122 L7.93680672,5.02115122 C6.87463025,5.03479805 6.01771429,5.89984976 6.0087395,6.96838634 L6.0087395,11.6528 C6.03135294,12.7066244 6.88572269,13.5521951 7.93637815,13.5521951 C7.93652941,13.5521951 7.93668067,13.5521951 7.93683193,13.5521951 L8.28369748,13.5521951 C8.76889076,13.5557971 9.18921849,13.8315746 9.40168908,14.2351961 L9.40504202,14.2421463 L10.2117647,15.865561 L11.0184874,14.2421463 C11.2175462,13.8474029 11.6083529,13.576242 12.0641765,13.552322 L12.0672269,13.5521951 L21.4655462,13.5521951 C21.4655966,13.5521951 21.4656471,13.5521951 21.4656975,13.5521951 C22.5309496,13.5521951 23.396084,12.6901873 23.4097479,11.6216254 L23.4097731,11.6203317 L23.4097731,6.96924878 C23.3918487,5.89784585 22.5310756,5.03459512 21.4668571,5.02115122 L21.4655714,5.02115122 L21.4655462,5.02115122 Z M24.8376471,19.1367415 L15.7136134,19.1367415 C15.0862353,19.1458478 14.5805966,19.6574517 14.5761345,20.2889346 L14.5761345,23.5361951 C14.5761345,23.5361951 14.5761345,23.5362205 14.5761345,23.5362205 C14.5761345,24.1699356 15.0844202,24.6842029 15.7131849,24.6888195 L21.7478992,24.6888195 C21.7480756,24.6888195 21.7483025,24.6888195 21.7485294,24.6888195 C22.2321092,24.6888195 22.6502941,24.9704566 22.8499076,25.3796332 L22.8531092,25.3868878 L23.1757983,26.0524878 L23.5065546,25.3868878 C23.7137815,24.9700254 24.1348655,24.6887941 24.6212437,24.6887941 C24.6235882,24.6887941 24.6259328,24.6887941 24.6282521,24.6888195 L24.8376471,24.6888195 C24.840042,24.6888449 24.8428655,24.6888449 24.8457143,24.6888449 C25.4783866,24.6888449 25.9912605,24.172802 25.9912605,23.5362205 C25.9912605,23.5362205 25.9912605,23.5361951 25.9912605,23.5361951 L25.9912605,20.2893659 C25.9866975,19.6517951 25.471958,19.1367415 24.8376723,19.1367415 C24.8376723,19.1367415 24.8376471,19.1367415 24.8376471,19.1367415 Z M15.7136134,17.1155902 L24.8376471,17.1155902 C24.8376471,17.1155902 24.8376471,17.1155902 24.8376471,17.1155902 C26.5813277,17.1155902 27.9954118,18.5355454 28,20.2889093 L28,23.5361951 C28,23.5365756 28,23.5370068 28,23.5374634 C28,25.2000937 26.7261092,26.5633815 25.1068151,26.6930263 L25.0957983,26.6937366 L24.2890756,28.3171512 C24.0747899,28.7185405 23.6604622,28.9868351 23.1838655,28.9868351 C22.7072689,28.9868351 22.2929412,28.7185405 22.0819328,28.3238732 L22.0786555,28.3171766 L21.2719328,26.693762 L15.7055462,26.693762 C13.9796387,26.6538868 12.5908908,25.2565327 12.5513361,23.5237405 L12.5512605,23.5199863 L12.5512605,20.2731571 C12.5648487,18.5258556 13.9689748,17.1130537 15.7042605,17.0993815 L15.7055462,17.0993815 L15.7136134,17.1155902 Z" id="path-1"></path>
        <rect id="path-3" x="0" y="0" width="32" height="32"></rect>
        <filter x="-46.9%" y="-46.9%" width="193.8%" height="193.8%" filterUnits="objectBoundingBox" id="filter-4">
            <feOffset dx="0" dy="0" in="SourceAlpha" result="shadowOffsetOuter1"></feOffset>
            <feGaussianBlur stdDeviation="5" in="shadowOffsetOuter1" result="shadowBlurOuter1"></feGaussianBlur>
            <feColorMatrix values="0 0 0 0 0   0 0 0 0 0   0 0 0 0 0  0 0 0 0 0" type="matrix" in="shadowBlurOuter1"></feColorMatrix>
        </filter>
    </defs>
    <g id="Playground" stroke="none" stroke-width="1" fill="none" fill-rule="evenodd">
        <g transform="translate(-610.000000, -109.000000)" id="Icon-mobile/-icon-live-chat">
            <g transform="translate(606.000000, 106.000000)">
                <mask id="mask-2" fill="white">
                    <use xlink:href="#path-1"></use>
                </mask>
                <g id="Shape"></g>
                <g id="↳-Color" stroke-width="1" fill-rule="evenodd" mask="url(#mask-2)">
                    <g id="BG">
                        <use fill="black" fill-opacity="1" filter="url(#filter-4)" xlink:href="#path-3"></use>
                        <use fill="#555555" fill-rule="evenodd" xlink:href="#path-3"></use>
                    </g>
                </g>
            </g>
        </g>
    </g>
</svg>