<?xml version="1.0" encoding="UTF-8"?>
<svg width="22px" height="28px" viewBox="0 0 22 28" version="1.1" xmlns="http://www.w3.org/2000/svg" xmlns:xlink="http://www.w3.org/1999/xlink">
    <!-- Generator: Sketch 52.5 (67469) - http://www.bohemiancoding.com/sketch -->
    <title>Icon mobile/ icon-in-play-old</title>
    <desc>Created with Sketch.</desc>
    <defs>
        <path d="M21.1902267,27.3004288 C21.4073174,27.1954698 21.5873073,27.0938129 21.7603426,26.9824678 L21.7399496,26.9947758 C23.0902065,26.1834035 24.0997683,24.9339922 24.5736549,23.4507018 L24.5860957,23.4055361 C24.7624836,22.743115 24.8637834,21.9826394 24.8637834,21.1988577 C24.8637834,19.3109864 24.2761562,17.5583119 23.271194,16.1085614 L23.2915869,16.1396998 C22.1185491,14.2975945 21.4221965,12.0589591 21.4207557,9.66023782 L21.4207557,9.65985575 C20.3656423,10.9261326 20.2947103,12.6552554 19.9755164,14.2009864 C19.7652141,15.5962924 18.7050856,16.699345 17.3379547,16.9915166 L17.3155668,16.9955283 C17.1015516,17.0349084 16.8553401,17.0574503 16.6037531,17.0574503 C16.2615617,17.0574503 15.929262,17.0157505 15.6117859,16.9372632 L15.6397985,16.9431306 C15.056272,16.7936881 14.5499673,16.5244405 14.1280882,16.1621871 L14.1324937,16.1658986 C13.3620227,15.4733216 12.8805164,14.4800585 12.8805164,13.3759961 C12.8805164,12.8940468 12.9722569,12.4332203 13.1395013,12.0095088 L13.1305793,12.0352164 C13.3664282,11.4148499 13.5029446,10.6979571 13.5029446,9.94965302 C13.5029446,8.34587524 12.8759169,6.88635478 11.8501184,5.79591033 L11.8538035,5.79986745 C12.1552645,9.37164133 10.9228212,12.4543704 8.96332494,15.4061053 C8.18767254,16.5813411 7.6077204,17.9586082 7.30905793,19.4357583 L7.29642317,19.5105887 C6.77329975,22.244 7.29642317,25.3441949 9.84997481,26.9423236 C9.99280856,27.0431345 10.1555088,27.1390331 10.3260504,27.2215595 L10.3464987,27.2305107 C10.2939924,26.9112125 10.2640126,26.5431189 10.2640126,26.1681481 C10.2640126,25.1157739 10.5002494,24.1177622 10.9233476,23.2227173 L10.9050882,23.2657544 C11.4032469,22.1923119 12.1568438,21.3071462 13.092204,20.6594074 L13.1128463,20.6458713 C13.8139924,20.1658869 14.665204,19.8505458 15.5854358,19.7738596 L15.6043325,19.772577 C15.6317078,19.7700936 15.6635441,19.7686745 15.6957128,19.7686745 C16.2517531,19.7686745 16.7073249,20.1923041 16.7478892,20.7297622 L16.7481108,20.7332008 C16.7489698,20.7494659 16.7494685,20.7685146 16.7494685,20.7876998 C16.7494685,21.1351072 16.5872947,21.4452086 16.3334358,21.6485497 L16.3313577,21.6501598 C16.193262,21.7589396 16.0780252,21.8891423 15.9892217,22.0365926 L15.9855642,22.0431423 C15.8275743,22.3203314 15.7345315,22.6515283 15.7345315,23.0041481 C15.7345315,23.0408811 15.735529,23.0773684 15.7375239,23.1136101 L15.7373023,23.1085614 C15.8437003,24.3224405 16.7214836,24.6106277 17.7677305,24.715423 C19.3902997,24.8813489 21.0394685,25.3092632 21.190199,27.335306 L21.1902267,27.3004288 Z M22.865995,28.7500975 C22.1339824,29.2119337 21.2904458,29.6009045 20.3953728,29.8746004 L20.3213098,29.8941131 C20.2401259,29.9152359 20.1469446,29.9273801 20.0508816,29.9273801 C19.9548186,29.9273801 19.8616373,29.9152359 19.772806,29.8924483 L19.7804534,29.8941131 C19.2986423,29.783614 18.9451738,29.3642963 18.9451738,28.863653 C18.9451738,28.7925887 18.9522947,28.7231618 18.9658715,28.6560273 L18.9647355,28.662768 C19.292796,27.0908382 18.743073,26.9161793 17.5549622,26.7677193 C15.489068,26.5581287 13.8221662,25.4927096 13.6359698,23.2745419 C13.6359698,23.1610136 13.6359698,23.0562183 13.6359698,22.9252242 C13.3236474,23.2774074 13.0566549,23.6801326 12.8511738,24.1166433 L12.8379849,24.1478363 C12.5454181,24.7146862 12.3740176,25.3839025 12.3740176,26.0925809 C12.3740176,26.9046355 12.5990882,27.6648928 12.9911259,28.3161793 L12.9798766,28.2959844 C13.114869,28.4786121 13.1958589,28.7073879 13.1958589,28.9548031 C13.1958589,29.0306706 13.1882393,29.1047914 13.1737204,29.1764561 L13.1749395,29.1692788 C13.0615592,29.6422768 12.6366045,29.9888655 12.1294408,29.9888655 C12.0633854,29.9888655 11.9986877,29.9829708 11.9359295,29.9717271 L11.9424962,29.9727096 C10.721136,29.7565965 9.63302267,29.3263899 8.67017632,28.7201326 L8.70622418,28.7413645 C5.42561965,26.6454581 4.53896977,22.7243665 5.21282368,19.1613255 C5.58488413,17.3251423 6.2724534,15.6962846 7.22363476,14.2513918 L7.1900529,14.305809 C9.53967506,10.6991033 10.319927,7.52904483 9.3002796,3.30230019 C9.28202015,3.22872515 9.2715466,3.14423392 9.2715466,3.05736842 C9.2715466,2.82138791 9.34879597,2.60317349 9.47977078,2.42594932 L9.47760957,2.42903314 C9.67400252,2.17815205 9.97923174,2.01812086 10.3224207,2.01812086 C10.5581864,2.01812086 10.7760252,2.09363353 10.9523854,2.22146199 L10.9494484,2.2194152 C14.5847128,4.83929825 16.5087431,8.2451462 15.1255693,12.6989474 C15.0363224,12.9031891 14.9844257,13.1409162 14.9844257,13.3905965 C14.9844257,13.8756569 15.1802922,14.3156608 15.4983778,14.6380702 L15.4979622,14.6376335 C15.6835768,14.7900234 15.9066524,14.9048616 16.1512569,14.9669747 L16.1629496,14.9694854 C16.2690151,15.002807 16.3910403,15.0220195 16.5176096,15.0220195 C16.6441788,15.0220195 16.766204,15.002807 16.8808035,14.967193 L16.8722695,14.9694854 C17.430471,14.8468148 17.8498287,14.3863704 17.9004232,13.8216491 L17.9007834,13.8167368 C18.5657708,10.550616 18.7874332,8.34991423 22.1389698,6.50726316 C22.3040529,6.41087329 22.5028287,6.35389084 22.7151259,6.35389084 C22.7777733,6.35389084 22.8392569,6.3588577 22.8991889,6.36840936 L22.8926222,6.36753606 C23.3864307,6.46471735 23.7533098,6.88823782 23.7533098,7.39619493 C23.7533098,7.46477583 23.7466322,7.53182846 23.7338589,7.59675244 L23.7349395,7.59014815 C23.6016096,8.20830409 23.5252746,8.91853801 23.5252746,9.64631969 C23.5252746,11.6518674 24.105005,13.5240741 25.1084156,15.1092125 L25.0826474,15.0655478 C26.2663804,16.7885302 26.9723199,18.9128187 26.9723199,21.19954 C26.9723199,22.204347 26.8360252,23.1777973 26.5806146,24.1029162 L26.5988186,24.0255478 C25.9638111,26.0442495 24.6396549,27.6970409 22.9027355,28.7554464 L22.8660227,28.776269 L22.865995,28.7500975 Z" id="path-1"></path>
        <rect id="path-3" x="0" y="0" width="32" height="32"></rect>
        <filter x="-46.9%" y="-46.9%" width="193.8%" height="193.8%" filterUnits="objectBoundingBox" id="filter-4">
            <feOffset dx="0" dy="0" in="SourceAlpha" result="shadowOffsetOuter1"></feOffset>
            <feGaussianBlur stdDeviation="5" in="shadowOffsetOuter1" result="shadowBlurOuter1"></feGaussianBlur>
            <feColorMatrix values="0 0 0 0 0   0 0 0 0 0   0 0 0 0 0  0 0 0 0 0" type="matrix" in="shadowBlurOuter1"></feColorMatrix>
        </filter>
    </defs>
    <g id="Playground" stroke="none" stroke-width="1" fill="none" fill-rule="evenodd">
        <g transform="translate(-476.000000, -108.000000)" id="Icon-mobile/-icon-in-play-old">
            <g transform="translate(471.000000, 106.000000)">
                <mask id="mask-2" fill="white">
                    <use xlink:href="#path-1"></use>
                </mask>
                <g id="Shape"></g>
                <g id="↳-Color" stroke-width="1" fill-rule="evenodd" mask="url(#mask-2)">
                    <g id="BG">
                        <use fill="black" fill-opacity="1" filter="url(#filter-4)" xlink:href="#path-3"></use>
                        <use fill="#555555" fill-rule="evenodd" xlink:href="#path-3"></use>
                    </g>
                </g>
            </g>
        </g>
    </g>
</svg>