<?xml version="1.0" encoding="UTF-8"?>
<svg width="28px" height="28px" viewBox="0 0 28 28" version="1.1" xmlns="http://www.w3.org/2000/svg" xmlns:xlink="http://www.w3.org/1999/xlink">
    <!-- Generator: Sketch 52.5 (67469) - http://www.bohemiancoding.com/sketch -->
    <title>Icon mobile/ icon-casino</title>
    <desc>Created with Sketch.</desc>
    <defs>
        <path d="M2.00002734,28.9237489 L2.00002734,15.5631643 C2,15.5605668 2,15.5574771 2,15.5543874 C2,14.9600186 2.48184262,14.478191 3.07623003,14.478191 C3.07931982,14.478191 3.0824096,14.478191 3.08549939,14.4782184 L10.4261483,14.4782184 L9.24492026,13.2970272 C9.05414646,13.1003807 8.93654317,12.8318238 8.93654317,12.5358151 C8.93654317,12.2398064 9.05414646,11.9712495 9.24519369,11.7743296 L18.7122446,2.30757453 C18.9075027,2.11732619 19.1745915,2 19.4691056,2 C19.7636196,2 20.0307084,2.11732619 20.2262126,2.30779326 L20.2259665,2.30757453 L29.684541,11.774603 C29.8794436,11.9693902 30,12.2385213 30,12.5358151 C30,12.8331089 29.8794436,13.10224 29.6845684,13.2970272 L20.2259939,22.7640557 C20.0307358,22.954304 19.763647,23.0716302 19.4691329,23.0716302 C19.1746188,23.0716302 18.90753,22.954304 18.7120259,22.763837 L18.7122719,22.7640557 L18.6247736,22.7115583 L17.4960445,21.5653654 L17.4960445,28.9237489 C17.4960445,28.9240223 17.4960445,28.9243231 17.4960445,28.9246512 C17.4960445,29.5036263 17.0388108,29.9758293 16.4657511,29.9998906 L16.4635637,29.9999727 L3.0850619,29.9999727 C3.08246429,30 3.07940185,30 3.07631206,30 C2.48192465,30 2.00008203,29.5181724 2.00008203,28.9238036 C2.00008203,28.9238036 2.00008203,28.9237763 2.00008203,28.9237763 L2.00002734,28.9237489 Z M12.5610814,18.3542753 C12.0052206,18.4058431 11.5734435,18.8699254 11.5734435,19.4348465 C11.5734435,19.9997676 12.0052206,20.4638499 12.5567885,20.5150896 L12.5610814,20.5154177 C13.1169422,20.4638499 13.5487193,19.9997676 13.5487193,19.4348465 C13.5487193,18.8699254 13.1169422,18.4058431 12.5653743,18.3546034 L12.5610814,18.3542753 Z M6.96993513,23.9539964 C6.96473991,23.9539144 6.95861503,23.9538597 6.9524628,23.9538597 C6.35323563,23.9538597 5.86748293,24.4395972 5.86748293,25.0388057 C5.86748293,25.6380141 6.35323563,26.1237516 6.9524628,26.1237516 C7.55168996,26.1237516 8.03744266,25.6380141 8.03744266,25.0388057 C8.03744266,25.0357707 8.03744266,25.032763 8.03741532,25.029728 L8.03741532,25.0301928 C8.03741532,25.0301928 8.03741532,25.0301655 8.03741532,25.0301655 C8.03741532,24.4388863 7.56054917,23.9589727 6.97039996,23.9539964 L6.96993513,23.9539964 Z M9.76988318,21.1628854 C9.76728557,21.1628581 9.76422312,21.1628581 9.76116068,21.1628581 C9.16677327,21.1628581 8.68493065,21.6446857 8.68493065,22.2390545 C8.68493065,22.8334233 9.16677327,23.3152509 9.76116068,23.3152509 C10.3555481,23.3152509 10.8373907,22.8334233 10.8373907,22.2390545 C10.8373907,22.2359922 10.8373907,22.2329298 10.8373634,22.2298675 L10.8373634,22.2303323 C10.8324416,21.6427717 10.3574621,21.1678071 9.77034801,21.1628854 L9.76988318,21.1628854 Z M12.5610814,23.9539964 C12.5584838,23.9539691 12.5554213,23.9539691 12.5523589,23.9539691 C11.9531317,23.9539691 11.467379,24.4397066 11.467379,25.0389151 C11.467379,25.6381235 11.9531317,26.123861 12.5523589,26.123861 C13.1515861,26.123861 13.6373388,25.6381235 13.6373388,25.0389151 C13.6373388,25.0358527 13.6373388,25.0327904 13.6373114,25.029728 L13.6373114,25.0301928 C13.6373114,24.435824 13.1554688,23.9539964 12.5610814,23.9539964 Z M14.7310411,11.774603 C14.5402673,11.9712495 14.422664,12.2398064 14.422664,12.5358151 C14.422664,12.8318238 14.5402673,13.1003807 14.7313146,13.2973006 L14.7310411,13.2970272 C14.9266273,13.493701 15.1974348,13.6154293 15.4966519,13.6154293 C16.092926,13.6154293 16.5762999,13.1320706 16.5762999,12.5358151 C16.5762999,12.2387674 16.456345,11.9697456 16.262208,11.7745483 L16.2622627,11.774603 C16.0660749,11.5792143 15.7954862,11.4584156 15.4966519,11.4584156 C15.1978176,11.4584156 14.9272289,11.5792143 14.7310138,11.7746304 L14.7310411,11.774603 Z M22.658394,11.774603 C22.4634914,11.9693902 22.342935,12.2385213 22.342935,12.5358151 C22.342935,12.8331089 22.4634914,13.10224 22.6583667,13.2970272 C22.8511366,13.4962438 23.1209323,13.6199408 23.4196026,13.6199408 C23.7182728,13.6199408 23.9880686,13.4962712 24.180565,13.297328 L24.1808384,13.2970272 C24.375659,13.1022127 24.4961607,12.8330816 24.4961607,12.5358151 C24.4961607,11.9412822 24.0141814,11.4592906 23.4196026,11.4592906 C23.1223268,11.4592906 22.8531873,11.5797885 22.6583667,11.774603 L22.658394,11.774603 Z M18.6947176,11.774603 C18.5027133,11.9688707 18.3840983,12.2360605 18.3840983,12.5309482 C18.3840983,13.125317 18.865941,13.6071446 19.4603284,13.6071446 C20.0547158,13.6071446 20.5365584,13.125317 20.5365584,12.5309482 C20.5365584,12.2360605 20.4179434,11.9688707 20.2258298,11.7744937 L20.2259392,11.774603 C20.0307358,11.5770816 19.7598189,11.4547518 19.4603284,11.4547518 C19.1608378,11.4547518 18.889921,11.5770816 18.694827,11.7744937 L18.6947176,11.774603 Z M18.6947176,15.7469052 C18.4936627,15.9371535 18.3685674,16.2058198 18.3685674,16.5037425 C18.3685674,16.8016652 18.4936901,17.0703315 18.6942527,17.260115 L18.6947449,17.2605798 C18.8877062,17.4525234 19.1537559,17.5711893 19.4475317,17.5711893 C20.0370794,17.5711893 20.5150119,17.0932717 20.5150119,16.5037425 C20.5150119,15.9142133 20.0370794,15.4362957 19.4475317,15.4362957 C19.1537833,15.4362957 18.8877335,15.5549616 18.6947176,15.7469599 L18.6947723,15.7469052 L18.6947176,15.7469052 Z M18.6947176,7.81105043 C18.53033,7.99902935 18.4300623,8.24675138 18.4300623,8.5178785 C18.4300623,9.11224734 18.911905,9.5940749 19.5062924,9.5940749 C19.7752405,9.5940749 20.0211656,9.49542357 20.2098067,9.33232622 L20.2084395,9.3334746 C20.4688292,9.13494152 20.6351855,8.82457807 20.6351855,8.47533375 C20.6351855,7.88096491 20.1533429,7.39913735 19.5589554,7.39913735 C19.2162899,7.39913735 18.9110573,7.55925437 18.7139399,7.80878101 L18.7122173,7.81105043 L18.6947176,7.81105043 Z M6.96993513,18.3542753 C6.96473991,18.3541933 6.95861503,18.3541386 6.9524628,18.3541386 C6.35323563,18.3541386 5.86748293,18.8398761 5.86748293,19.4390846 C5.86748293,20.038293 6.35323563,20.5240305 6.9524628,20.5240305 C7.54854549,20.5240305 8.03238416,20.043324 8.03741532,19.448463 L8.03741532,19.4479982 C8.03749735,19.4427758 8.03755204,19.4366238 8.03755204,19.4304717 C8.03755204,18.8391379 7.56060386,18.359197 6.97039996,18.3543027 L6.96993513,18.3543027 L6.96993513,18.3542753 Z M13.4535648,14.4782184 L16.463509,14.4782184 C17.0503223,14.4880343 17.5222667,14.9660339 17.5222667,15.5542781 C17.5222667,15.5573951 17.5222667,15.5605395 17.5222393,15.5636565 L17.5222393,15.5631917 L17.5222393,18.5467931 L19.4997026,20.4629476 L27.4270556,12.5883398 L19.4997026,4.62623639 L11.5635999,12.5620911 L13.4885642,14.4957448 L13.4535648,14.4782184 Z M4.15248741,16.613112 L4.15248741,27.8475525 L15.3785291,27.8475525 L15.3785291,16.613112 L4.15248741,16.613112 Z" id="path-1"></path>
        <rect id="path-3" x="0" y="0" width="32" height="32"></rect>
        <filter x="-46.9%" y="-46.9%" width="193.8%" height="193.8%" filterUnits="objectBoundingBox" id="filter-4">
            <feOffset dx="0" dy="0" in="SourceAlpha" result="shadowOffsetOuter1"></feOffset>
            <feGaussianBlur stdDeviation="5" in="shadowOffsetOuter1" result="shadowBlurOuter1"></feGaussianBlur>
            <feColorMatrix values="0 0 0 0 0   0 0 0 0 0   0 0 0 0 0  0 0 0 0 0" type="matrix" in="shadowBlurOuter1"></feColorMatrix>
        </filter>
    </defs>
    <g id="Playground" stroke="none" stroke-width="1" fill="none" fill-rule="evenodd">
        <g transform="translate(-249.000000, -108.000000)" id="Icon-mobile/-icon-casino">
            <g transform="translate(247.000000, 106.000000)">
                <mask id="mask-2" fill="white">
                    <use xlink:href="#path-1"></use>
                </mask>
                <g id="Shape"></g>
                <g id="↳-Color" stroke-width="1" fill-rule="evenodd" mask="url(#mask-2)">
                    <g id="BG">
                        <use fill="black" fill-opacity="1" filter="url(#filter-4)" xlink:href="#path-3"></use>
                        <use fill="#555555" fill-rule="evenodd" xlink:href="#path-3"></use>
                    </g>
                </g>
            </g>
        </g>
    </g>
</svg>