<?xml version="1.0" encoding="UTF-8"?>
<svg width="17px" height="26px" viewBox="0 0 17 26" version="1.1" xmlns="http://www.w3.org/2000/svg" xmlns:xlink="http://www.w3.org/1999/xlink">
    <!-- Generator: Sketch 52.5 (67469) - http://www.bohemiancoding.com/sketch -->
    <title>Icon mobile/ icon-help-desk</title>
    <desc>Created with Sketch.</desc>
    <defs>
        <path d="M13.1,28.805 L13.1,23.8325 L18,23.8325 L18,28.805 L13.1,28.805 Z M17.0666667,24.7425 L14.0333333,24.7425 L14.0333333,27.895 L17.0666667,27.895 L17.0666667,24.7425 Z M21.5,5.08 C23.0333333,6.445 23.8,8.2 23.8,10.3125 C23.8,11.4825 23.5333333,12.62 23,13.6275 C22.4666667,14.6025 21.5333333,15.7075 20.1666667,16.8775 C18.7,18.145 18.2,18.86 18.0333333,19.2175 C17.8,19.77 17.6666667,20.745 17.6666667,22.1425 L17.6666667,22.9875 L13.2333333,22.9875 L13.2333333,22.1425 C13.2333333,19.9975 13.5,18.4375 14,17.3975 C14.4666667,16.3575 15.3666667,15.285 16.6666667,14.1475 C18.0666667,12.945 18.5666667,12.295 18.7333333,11.97 C18.9333333,11.515 19.0666667,11.0275 19.0666667,10.54 C19.0666667,9.5 18.7333333,8.6875 18.1,8.0375 C17.4666667,7.42 16.6666667,7.095 15.6,7.095 C13.5333333,7.095 12.4,8.265 12.0333333,10.8325 L11.9333333,11.5475 L7.23333333,11.5475 L7.3,10.6375 C7.5,8.3625 8.36666667,6.4775 9.86666667,5.1125 C11.3666667,3.715 13.3,3.0325 15.6,3.0325 C18,3.0325 20,3.715 21.5,5.08 Z M16.7333333,22.0775 C16.7333333,20.5825 16.9,19.51 17.1666667,18.8275 C17.4666667,18.145 18.2666667,17.2675 19.5666667,16.1625 C20.8333333,15.0575 21.7,14.05 22.1666667,13.1725 C22.6333333,12.295 22.8666667,11.32 22.8666667,10.28 C22.8666667,8.46 22.2,6.9325 20.8666667,5.73 C19.5333333,4.56 17.7666667,3.9425 15.6,3.9425 C13.5666667,3.9425 11.8666667,4.56 10.5333333,5.7625 C9.2,6.9325 8.46666667,8.59 8.26666667,10.605 L11.1333333,10.605 C11.6,7.6475 13.1,6.1525 15.6333333,6.1525 C16.9333333,6.1525 17.9666667,6.575 18.8,7.3875 C19.6,8.2 20,9.24 20,10.5075 C20,11.1575 19.8666667,11.775 19.5666667,12.36 C19.2666667,12.945 18.5333333,13.7575 17.3,14.83 C16.1,15.87 15.2666667,16.8775 14.8333333,17.7875 C14.4,18.6975 14.1666667,20.1275 14.1666667,22.0775 L16.7333333,22.0775 Z" id="path-1"></path>
        <rect id="path-3" x="0" y="0" width="32" height="32"></rect>
        <filter x="-46.9%" y="-46.9%" width="193.8%" height="193.8%" filterUnits="objectBoundingBox" id="filter-4">
            <feOffset dx="0" dy="0" in="SourceAlpha" result="shadowOffsetOuter1"></feOffset>
            <feGaussianBlur stdDeviation="5" in="shadowOffsetOuter1" result="shadowBlurOuter1"></feGaussianBlur>
            <feColorMatrix values="0 0 0 0 0   0 0 0 0 0   0 0 0 0 0  0 0 0 0 0" type="matrix" in="shadowBlurOuter1"></feColorMatrix>
        </filter>
    </defs>
    <g id="Playground" stroke="none" stroke-width="1" fill="none" fill-rule="evenodd">
        <g transform="translate(-344.000000, -109.000000)" id="Icon-mobile/-icon-help-desk">
            <g transform="translate(337.000000, 106.000000)">
                <mask id="mask-2" fill="white">
                    <use xlink:href="#path-1"></use>
                </mask>
                <g id="Shape"></g>
                <g id="↳-Color" stroke-width="1" fill-rule="evenodd" mask="url(#mask-2)">
                    <g id="BG">
                        <use fill="black" fill-opacity="1" filter="url(#filter-4)" xlink:href="#path-3"></use>
                        <use fill="#555555" fill-rule="evenodd" xlink:href="#path-3"></use>
                    </g>
                </g>
            </g>
        </g>
    </g>
</svg>