<?xml version="1.0" encoding="UTF-8"?>
<svg width="28px" height="28px" viewBox="0 0 28 28" version="1.1" xmlns="http://www.w3.org/2000/svg" xmlns:xlink="http://www.w3.org/1999/xlink">
    <!-- Generator: Sketch 52.5 (67469) - http://www.bohemiancoding.com/sketch -->
    <title>Icon mobile/ icon-sports</title>
    <desc>Created with Sketch.</desc>
    <defs>
        <path d="M29.5107259,12.3432919 C28.5241734,8.69929827 26.1963926,5.7154129 23.1035302,3.89323834 L23.038321,3.85772012 C21.0312045,2.6895291 18.6211404,2 16.0501431,2 C10.9042692,2 6.40297498,4.76229984 3.94573183,8.88626789 L3.9100812,8.95082409 L3.86628967,9.01218119 C2.69287875,11.0192473 2,13.4314781 2,16.0057146 C2,21.1487738 4.7657235,25.6453139 8.88977674,28.0866374 L8.95487669,28.1222923 L9.00743746,28.1222923 C11.0167667,29.3027876 13.4328956,30 16.0116787,30 C21.1506136,30 25.6434391,27.231384 28.0824882,23.1031231 L28.1181115,23.037938 C29.3011931,21.0243917 30,18.6025362 30,16.017308 C30,14.7102979 29.8213917,13.4450128 29.487232,12.2446394 L29.5106713,12.3432919 L29.5107259,12.3432919 Z M23.9754543,11.6420055 L22.5478449,16.4546003 L20.2268937,17.059449 L19.9291222,13.1585156 L15.479897,10.9056383 L14.7617213,11.2738082 L15.4448747,8.40727785 L20.5247198,7.84625961 L23.9754543,11.6420055 Z M20.9100471,5.12002484 L20.9100471,5.19015896 L20.3407571,6.5664282 L14.9894209,7.16252717 L11.4860983,5.99663294 L11.1707883,5.12002484 C12.6026868,4.46401794 14.2769275,4.08154776 16.0404177,4.08154776 C17.8039079,4.08154776 19.4781759,4.46399059 20.9848997,5.15053934 L20.9100744,5.1199975 L20.9100471,5.12002484 Z M11.2583441,7.258965 L14.1661237,8.23201092 L13.2902931,12.0452561 L11.0832053,13.176097 L11.0832053,13.2812845 L8.83232596,13.7458922 L7.47478845,10.3095666 C8.50111664,9.0510899 9.76069006,8.02568264 11.1930529,7.28945215 L11.2583714,7.25893766 L11.2583441,7.258965 Z M6.16101515,19.5315057 L4.76842803,19.8032651 C4.68961419,19.5753361 4.61954228,19.3474344 4.5582396,19.1019786 C4.29573627,18.1735561 4.14482895,17.1073534 4.14482895,16.005824 C4.14482895,14.0482209 4.62148189,12.2020394 5.46499478,10.5772247 L5.43407025,10.6426832 L6.23982899,10.7829514 L7.7287411,14.4822594 C7.37259,15.203096 7.04433107,16.0558339 6.79215413,16.9406721 L6.76532738,17.0507266 C6.52885857,17.8396739 6.32741205,18.6549249 6.16101515,19.531533 L6.16101515,19.5315057 Z M8.88483209,21.9860357 C8.33709645,21.3830737 7.83946292,20.7147899 7.41023487,20.0006523 L7.37840883,19.9435333 C7.55357497,19.0669253 7.76376339,18.1903172 8.00900144,17.3838158 C8.27161404,16.4809587 8.56957677,15.7132567 8.92458049,14.9783387 L8.88483209,15.0695814 L11.2408329,14.587447 L11.6349567,17.8484509 C11.6830373,17.8491618 11.7263371,17.8691494 11.7575348,17.901031 L11.7575621,17.9010584 L16.3206507,20.4519989 L15.5411451,22.5032782 C14.8875776,22.8009859 14.1184803,23.0602497 13.319797,23.2415047 L13.237705,23.2571721 C12.5407831,23.4210098 11.7359532,23.522424 10.9100334,23.5375445 L10.8992153,23.5377086 C10.1350626,23.0732922 9.47425574,22.5485578 8.88584288,21.9521033 L8.88480478,21.951037 L8.88483209,21.9860357 Z M19.5174599,27.3333451 C19.4004549,27.3813042 19.2545195,27.4293181 19.1048415,27.4680354 L19.0795446,27.4735859 C18.1693473,27.7246743 17.1242513,27.8689346 16.0454716,27.8689346 C14.09821,27.8689346 12.2606593,27.3988309 10.6399082,26.5658345 L10.7065653,26.5969505 L11.2145526,24.8437343 C12.0562078,24.8090364 12.8525416,24.6990639 13.6223219,24.5199143 L13.5355311,24.5369215 C14.4888643,24.3208318 15.3163686,24.0466662 16.1069109,23.7033235 L16.0141646,23.7391972 L19.7189338,25.667735 L19.5174599,27.3333451 Z M22.5566141,23.20451 C21.9245463,23.724268 21.2159321,24.1984184 20.4626249,24.5996731 L20.3932906,24.6333867 L16.889968,22.7223755 L18.107389,19.5315057 L19.3423211,18.6548976 L22.7230384,17.7782895 L24.0805759,21.5652583 C23.6269524,22.1806886 23.1259041,22.7183562 22.5699182,23.1934362 L22.5566415,23.20451 L22.5566141,23.20451 Z M27.0846805,20.3555337 L25.1841334,20.8814985 L23.7828044,16.9981192 L25.2979969,11.8611848 L27.1197301,11.7121669 C27.2686158,12.1241673 27.3824793,12.5274179 27.5050847,12.9306686 C27.7673148,13.8554272 27.9180855,14.9174738 27.9180855,16.0147651 C27.9180855,17.5782774 27.6119819,19.0702064 27.0564605,20.4338433 L27.0846532,20.355561 L27.0846805,20.3555337 Z" id="path-1"></path>
        <rect id="path-3" x="0" y="0" width="32" height="32"></rect>
        <filter x="-46.9%" y="-46.9%" width="193.8%" height="193.8%" filterUnits="objectBoundingBox" id="filter-4">
            <feOffset dx="0" dy="0" in="SourceAlpha" result="shadowOffsetOuter1"></feOffset>
            <feGaussianBlur stdDeviation="5" in="shadowOffsetOuter1" result="shadowBlurOuter1"></feGaussianBlur>
            <feColorMatrix values="0 0 0 0 0   0 0 0 0 0   0 0 0 0 0  0 0 0 0 0" type="matrix" in="shadowBlurOuter1"></feColorMatrix>
        </filter>
    </defs>
    <g id="Playground" stroke="none" stroke-width="1" fill="none" fill-rule="evenodd">
        <g transform="translate(-787.000000, -108.000000)" id="Icon-mobile/-icon-sports">
            <g transform="translate(785.000000, 106.000000)">
                <mask id="mask-2" fill="white">
                    <use xlink:href="#path-1"></use>
                </mask>
                <g id="Shape"></g>
                <g id="↳-Color" stroke-width="1" fill-rule="evenodd" mask="url(#mask-2)">
                    <g id="BG">
                        <use fill="black" fill-opacity="1" filter="url(#filter-4)" xlink:href="#path-3"></use>
                        <use fill="#555555" fill-rule="evenodd" xlink:href="#path-3"></use>
                    </g>
                </g>
            </g>
        </g>
    </g>
</svg>