<?xml version="1.0" encoding="UTF-8"?>
<svg width="28px" height="24px" viewBox="0 0 28 24" version="1.1" xmlns="http://www.w3.org/2000/svg" xmlns:xlink="http://www.w3.org/1999/xlink">
    <!-- Generator: Sketch 52.5 (67469) - http://www.bohemiancoding.com/sketch -->
    <title>Icon mobile/ icon-live-casino-old</title>
    <desc>Created with Sketch.</desc>
    <defs>
        <path d="M29.86629,20.5301988 L29.8662666,20.5301754 L29.8626991,20.521848 C29.9482012,20.7007953 29.9960335,20.9010526 29.9960335,21.1124444 C29.9960335,21.1302222 29.9956815,21.147883 29.9950947,21.1629474 L29.9950947,21.6214737 L29.9950712,21.6210058 C29.9951886,21.6242573 29.995259,21.6275322 29.995259,21.630807 C29.995259,21.7776842 29.8757955,21.8967485 29.7284258,21.8967485 C29.72514,21.8967485 29.7218541,21.8966784 29.7190612,21.8965848 L2.2994803,21.8965848 L2.29994971,21.8965614 C2.29668734,21.8966784 2.29340151,21.8967485 2.29011567,21.8967485 C2.14274602,21.8967485 2.02328248,21.7776842 2.02328248,21.630807 C2.02328248,21.6275322 2.02335289,21.6242573 2.02344677,21.6214737 L2.02344677,21.2363041 L2.02347024,21.2376374 C2.02330595,21.2288421 2.02323554,21.2200468 2.02323554,21.2112047 C2.02323554,20.9624795 2.08456329,20.7280234 2.18907628,20.5301988 C3.15827214,18.6288499 4.13053479,16.7336218 5.10586421,14.8445146 L8.5747192,8.06755556 L8.5773948,8.06023392 C8.74278961,7.66037427 9.13772339,7.37892398 9.59863202,7.37892398 C9.61388768,7.37892398 9.6290964,7.37922807 9.64205197,7.37976608 C10.2309204,7.37976608 10.8198122,7.37976608 11.4362816,7.37976608 L11.9331467,7.37976608 L11.9331467,5.02297076 L11.9335222,5.0274152 C11.9299078,4.99197661 11.9280536,4.95602339 11.9280536,4.91962573 C11.9280536,4.67808187 12.0095423,4.45548538 12.1447779,4.28016374 L12.1449656,4.27997661 C12.3020989,4.11892398 12.5218508,4.01890058 12.7650495,4.01890058 C12.7961241,4.01890058 12.8268231,4.02053801 12.8532741,4.02339181 L19.1376899,4.02339181 C19.9566136,4.02339181 20.0578173,4.54610526 20.0578173,5.05047953 L20.0578173,7.33391813 L22.5241174,7.33391813 C22.8889623,7.33674854 23.2032288,7.55120468 23.3518424,7.86580117 L26.1858039,13.3680702 L29.86629,20.5301988 Z M13.2121341,9.03045614 L13.2121576,9.03045614 C13.0649288,9.38809357 12.9545247,9.76407018 12.8256966,10.1492398 L19.1745147,10.1492398 C19.0456865,9.76409357 18.9260821,9.39726316 18.7880536,9.03045614 C16.9478223,9.03045614 15.0523655,9.03045614 13.2121341,9.03045614 Z M5.3726974,17.6415205 L4.03848449,20.2184327 L11.7030914,20.2184327 C11.7030914,20.2367719 11.7030914,20.2276023 11.7030914,20.1634152 L11.7103906,20.1336608 C11.9082682,19.4434386 12.2781123,18.8255439 12.7704241,18.3293333 L12.7741794,18.325076 C13.5645163,17.4417076 14.7151215,16.8854737 15.996057,16.8854737 C16.3168718,16.8854737 16.6295423,16.9203509 16.9017737,16.9812632 L16.9295155,16.9855673 C18.620922,17.3018012 19.9766337,18.5671345 20.4258307,20.2367719 L28.0444124,20.2367719 L26.6366203,17.4856374 C25.2012506,14.6978012 23.7658575,11.8733099 22.321264,9.12217544 L22.3200671,9.11887719 C22.305492,9.08360234 22.286974,9.05040936 22.266062,9.02128655 L20.4258307,9.02128655 L20.490233,9.30556725 C20.6374619,9.7365848 20.7846672,10.1584094 20.9226957,10.5802573 L20.9201609,10.5736374 C20.973321,10.6968889 21.0027762,10.8327018 21.0027762,10.9753684 C21.0027762,11.1680468 20.9490528,11.3482339 20.8582934,11.4973099 L20.8569086,11.4991345 C20.7036245,11.6939883 20.4652842,11.8191813 20.197606,11.8191813 C20.1840168,11.8191813 20.1705214,11.8188538 20.1589975,11.8182924 L19.0364627,11.8182924 L19.0326605,11.8377076 C18.7361844,13.1138947 17.5884895,14.0650994 16.2178977,14.0650994 C16.2124761,14.0650994 16.207078,14.065076 16.2025013,14.0650526 L16.2166538,14.0636725 C16.0996312,14.0775906 15.9805432,14.0847485 15.8597653,14.0847485 C14.4776496,14.0847485 13.3152154,13.1473684 12.9728785,11.8549708 L11.8508835,11.8549708 C11.847316,11.8550175 11.8437251,11.8550409 11.8401576,11.8550409 C11.5743101,11.8550409 11.3367678,11.7341988 11.1786488,11.5431813 L11.1809723,11.5469708 C11.0790411,11.3914854 11.0198022,11.2056608 11.0198022,11.0060585 C11.0198022,10.8689591 11.0477552,10.7383626 11.0958223,10.6261287 C11.1326471,10.497731 11.1786488,10.3693333 11.2246505,10.2501287 L11.6203118,9.01211696 L11.3994803,9.01211696 C10.8842146,9.01211696 10.4425516,9.01211696 9.96408718,9.01211696 C9.86288349,9.01211696 9.80765801,9.02128655 9.70645432,9.20470175 C8.61152054,11.3597661 7.54418776,13.5056374 6.38482816,15.6607018 L5.3726974,17.6415205 Z M14.6659044,11.8366082 L14.6659044,11.8366316 L14.6672657,11.838152 C14.9838324,12.1876491 15.441995,12.4072982 15.9516278,12.4072982 C15.9816228,12.4072982 16.01143,12.4065263 16.0368952,12.405193 L16.0348298,12.4051462 C16.0487242,12.4054737 16.0626655,12.4056374 16.0766303,12.4056374 C16.5829304,12.4056374 17.0379011,12.1865029 17.3526605,11.8366082 L14.6659044,11.8366082 Z M15.6688583,18.5310409 L15.6688583,18.5310175 L15.6515842,18.5330292 C14.6162649,18.6794386 13.7380553,19.3123977 13.2489355,20.2092164 L18.769653,20.2092164 L18.7614149,20.1920468 C18.2368785,19.1953918 17.1886505,18.5155088 15.981083,18.5155088 C15.8711249,18.5155088 15.7624811,18.5211462 15.6688583,18.5310409 Z M13.4513663,7.35225731 L18.5856463,7.35225731 L18.5856463,5.69239766 L13.4513663,5.69239766 L13.4513663,7.35225731 Z M9.69727745,23.5839532 L9.69727745,27.0962339 L11.6847376,27.0962339 C11.6969891,27.0952281 11.7112825,27.0946667 11.7256932,27.0946667 C11.8494753,27.0946667 11.9634233,27.1366784 12.0539715,27.2071579 L12.052798,27.206269 C12.1320335,27.2770994 12.1816731,27.3794854 12.1816731,27.4934035 C12.1816731,27.4956257 12.1816496,27.497848 12.1816262,27.5000702 L12.1816262,27.4997427 C12.1816496,27.5013801 12.1816731,27.5032982 12.1816731,27.5052398 C12.1816731,27.6165848 12.1318927,27.7163509 12.0533143,27.7836257 L12.0528215,27.7840234 C11.9634702,27.8536374 11.8495222,27.8956491 11.7257402,27.8956491 C11.7113294,27.8956491 11.697036,27.8950877 11.682907,27.8939649 L11.6847611,27.8940819 L9.3200637,27.8940819 C9.30260184,27.8957661 9.28230008,27.8967251 9.26176362,27.8967251 C9.10923051,27.8967251 8.96908969,27.843883 8.85875608,27.7555556 L8.86002347,27.756538 C8.7725264,27.6467836 8.71964795,27.5061754 8.71964795,27.3532865 C8.71964795,27.3338246 8.72049288,27.3145731 8.72218273,27.2955556 L8.72201844,27.2980117 L8.72201844,23.5839766 C8.72098575,23.5699181 8.72039899,23.5535439 8.72039899,23.5370058 C8.72039899,23.3858713 8.76931098,23.246152 8.85220788,23.132655 L8.85084661,23.1346199 C8.93951718,23.044 9.06322883,22.9877895 9.20010729,22.9877895 C9.20348701,22.9877895 9.20684325,22.9878129 9.2101995,22.987883 L9.20970662,22.987883 C9.21599665,22.9875789 9.2233663,22.9873918 9.2307829,22.9873918 C9.36414082,22.9873918 9.48426153,23.0439532 9.568285,23.1343158 L9.56856664,23.1346199 C9.65010226,23.246152 9.69899078,23.3858713 9.69899078,23.5370058 C9.69899078,23.5535205 9.69840402,23.5699181 9.69725398,23.586152 L9.69737133,23.5839766 L9.69727745,23.5839532 Z M12.8624744,27.380538 L12.8624744,23.5839766 C12.8612305,23.5690526 12.8605264,23.5516959 12.8605264,23.534152 C12.8605264,23.3825263 12.913264,23.2431813 13.0014652,23.1333333 L13.0004795,23.1345965 C13.0862397,23.044117 13.2074401,22.9877895 13.3418541,22.9877895 C13.3447645,22.9877895 13.3476513,22.9878129 13.3505616,22.9878596 L13.3501157,22.9878596 C13.3564057,22.9875556 13.3637754,22.9873684 13.371192,22.9873684 C13.5045499,22.9873684 13.6246706,23.0439298 13.708694,23.1342924 L13.7089757,23.1345965 C13.7961911,23.2431579 13.8489288,23.3825029 13.8489288,23.5341287 C13.8489288,23.5516491 13.8482246,23.5690292 13.8468399,23.5861988 L13.8469807,23.5839298 L13.8469807,27.3804912 C13.8482246,27.3954152 13.8489288,27.4127719 13.8489288,27.4303158 C13.8489288,27.5819415 13.7961911,27.7212865 13.7079899,27.8311345 L13.7089757,27.8298713 C13.6246706,27.9205146 13.5045733,27.977076 13.3712154,27.977076 C13.3637988,27.977076 13.3564292,27.9769123 13.3491065,27.9765614 L13.3501391,27.9766082 C13.3441542,27.9768889 13.3371366,27.9770526 13.3300956,27.9770526 C13.1992724,27.9770526 13.0817334,27.9203743 13.0008785,27.8302924 L13.0005029,27.8298713 C12.9132875,27.7213099 12.8605499,27.5819649 12.8605499,27.4303392 C12.8605499,27.4128187 12.861254,27.3954386 12.8626387,27.378269 L12.8624979,27.380538 L12.8624744,27.380538 Z M15.6596345,23.6298246 L16.745368,26.8669942 L17.8403018,23.6114854 C17.8955038,23.4372398 17.9415054,23.3180351 17.9691299,23.253848 C18.0412775,23.0957427 18.1983873,22.9877895 18.3807745,22.9877895 C18.4666287,22.9877895 18.5468969,23.0117193 18.6151953,23.0532398 L18.6132003,23.052117 C18.6846672,23.0932164 18.7433898,23.1488187 18.7868332,23.2152515 L18.7880302,23.217193 C18.822062,23.2781053 18.8424107,23.3506433 18.8432322,23.4278596 L18.8432322,23.4280936 C18.8451333,23.4514386 18.8462364,23.4786199 18.8462364,23.5060351 C18.8462364,23.5334503 18.8451567,23.560655 18.843021,23.5875322 L18.8432557,23.5839766 C18.8305348,23.648 18.8146454,23.7033216 18.7947427,23.7567251 L18.797254,23.7490526 C18.7749573,23.7943158 18.7531065,23.8489825 18.7352221,23.9054269 L18.7328516,23.9141287 L17.5642917,27.0687719 C17.51829,27.1879766 17.4814887,27.2980351 17.4354635,27.4080702 C17.3963386,27.5165614 17.3466052,27.6105029 17.2857703,27.6960234 L17.2882582,27.6923509 C17.2337603,27.775345 17.1628097,27.8431345 17.0795608,27.8924912 L17.0766505,27.8941053 C16.9840604,27.9462222 16.8733277,27.9769123 16.7554132,27.9769123 C16.7486538,27.9769123 16.7419179,27.9768187 16.7352054,27.9766082 L16.7361911,27.9766316 C16.73314,27.9766784 16.729549,27.9767018 16.7259581,27.9767018 C16.6091702,27.9767018 16.4987427,27.9495906 16.400637,27.9013567 L16.4049556,27.9032749 C16.3137033,27.8518129 16.2392322,27.7805146 16.1856262,27.6949006 L16.1841475,27.6923509 C16.125777,27.6105029 16.0760671,27.5165614 16.0395474,27.4163041 L16.0369187,27.4080702 C15.990917,27.2980351 15.9541157,27.1879766 15.9080905,27.0687719 L14.7579313,23.9416374 C14.7398122,23.8781053 14.7178676,23.8233216 14.6911115,23.7714152 L14.6935289,23.7765614 C14.6910176,23.7490994 14.6895859,23.7171462 14.6895859,23.6848655 C14.6895859,23.6525848 14.6910176,23.6206316 14.6938106,23.589076 L14.6935289,23.5931696 C14.6903604,23.5697544 14.6885532,23.5426901 14.6885532,23.5152281 C14.6885532,23.4877661 14.6903604,23.4606784 14.693881,23.434152 L14.6935524,23.4372632 C14.6935524,23.4372164 14.6935524,23.4371696 14.6935524,23.4371228 C14.6935524,23.3138246 14.7466186,23.2028772 14.8312523,23.1257544 L14.8315809,23.1254737 C14.9151584,23.0404678 15.0315474,22.9877661 15.1602816,22.9877661 C15.1644124,22.9877661 15.1685197,22.9878129 15.172627,22.9879298 L15.1720168,22.9879064 C15.1833294,22.9867368 15.1964728,22.9860585 15.2097804,22.9860585 C15.3373881,22.9860585 15.4505616,23.0476959 15.5209254,23.1427368 L15.5216764,23.1437895 C15.5848349,23.2847018 15.6330897,23.4483743 15.6584376,23.6194854 L15.6597049,23.6298246 L15.6596345,23.6298246 Z M22.7813747,23.822386 L20.573083,23.822386 L20.573083,25.0053801 L22.6065448,25.0053801 C22.6162381,25.0047018 22.6275507,25.0043041 22.6389573,25.0043041 C22.7520604,25.0043041 22.8561509,25.0426667 22.9388835,25.1070643 L22.9378039,25.1062456 C23.0059614,25.1699883 23.0484191,25.2603275 23.0484191,25.3605614 C23.0484191,25.364655 23.0483487,25.3687251 23.0482079,25.3727719 L23.0482313,25.3721871 C23.0483018,25.374924 23.0483487,25.378152 23.0483487,25.3814035 C23.0483487,25.4852398 23.0061023,25.5792515 22.9378273,25.6472982 C22.8561744,25.7108772 22.7520838,25.7492398 22.6389807,25.7492398 C22.6275742,25.7492398 22.6162615,25.7488421 22.6050662,25.7480936 L22.6065918,25.7481871 L20.5731299,25.7481871 L20.5731299,27.1145731 L22.8550243,27.1145731 C22.8657267,27.1137544 22.8781894,27.1132865 22.890793,27.1132865 C23.0102565,27.1132865 23.1198625,27.1552982 23.2055524,27.2253099 L23.204684,27.2246082 C23.2784744,27.2948772 23.3243353,27.393731 23.3243353,27.5032515 C23.3243353,27.5052398 23.3243118,27.5072047 23.3242883,27.509193 L23.3242883,27.5088889 C23.3244292,27.5126082 23.3245231,27.5169825 23.3245231,27.5213567 C23.3245231,27.6259415 23.2782867,27.7197661 23.205083,27.7836491 L23.204684,27.784 C23.1198625,27.8533099 23.0102565,27.8953216 22.890793,27.8953216 C22.8782129,27.8953216 22.8657267,27.8948538 22.8533814,27.8939415 L22.8550243,27.8940351 L20.1866689,27.8940351 C20.1558525,27.9006784 20.1204593,27.9044912 20.0841744,27.9044912 C19.8046907,27.9044912 19.578109,27.6786667 19.578109,27.400117 C19.578109,27.3639532 19.5819346,27.3286784 19.5891869,27.2946667 L19.5886002,27.2979649 L19.5886002,23.6297778 C19.5881308,23.6197427 19.5878491,23.608 19.5878491,23.5961871 C19.5878491,23.4854971 19.6118357,23.3803977 19.6549271,23.2857544 L19.6530025,23.2904795 C19.6932305,23.2051228 19.7605666,23.1379883 19.8438156,23.098924 L19.846233,23.0978947 C19.9364526,23.0568655 20.0419044,23.0329591 20.1529656,23.0329591 C20.1648181,23.0329591 20.1766236,23.0332398 20.1883353,23.0337778 L20.1866689,23.0337076 L22.7813982,23.0337076 C22.7911383,23.033076 22.8025448,23.0327251 22.8139983,23.0327251 C22.9330394,23.0327251 23.0431148,23.0709006 23.1326069,23.1356491 L23.1310344,23.1345731 C23.2004359,23.2055439 23.2432456,23.3026433 23.2432456,23.4096842 C23.2432456,23.5167251 23.2004359,23.6138246 23.130964,23.6848889 L23.1310344,23.6847953 C23.0383973,23.7676023 22.9162347,23.8192515 22.7820319,23.8223392 L22.7813982,23.8223392 L22.7813747,23.822386 Z" id="path-1"></path>
        <rect id="path-3" x="0" y="0" width="32" height="32"></rect>
        <filter x="-46.9%" y="-46.9%" width="193.8%" height="193.8%" filterUnits="objectBoundingBox" id="filter-4">
            <feOffset dx="0" dy="0" in="SourceAlpha" result="shadowOffsetOuter1"></feOffset>
            <feGaussianBlur stdDeviation="5" in="shadowOffsetOuter1" result="shadowBlurOuter1"></feGaussianBlur>
            <feColorMatrix values="0 0 0 0 0   0 0 0 0 0   0 0 0 0 0  0 0 0 0 0" type="matrix" in="shadowBlurOuter1"></feColorMatrix>
        </filter>
    </defs>
    <g id="Playground" stroke="none" stroke-width="1" fill="none" fill-rule="evenodd">
        <g transform="translate(-563.000000, -110.000000)" id="Icon-mobile/-icon-live-casino-old">
            <g transform="translate(561.000000, 106.000000)">
                <mask id="mask-2" fill="white">
                    <use xlink:href="#path-1"></use>
                </mask>
                <g id="Shape"></g>
                <g id="↳-Color" stroke-width="1" fill-rule="evenodd" mask="url(#mask-2)">
                    <g id="BG">
                        <use fill="black" fill-opacity="1" filter="url(#filter-4)" xlink:href="#path-3"></use>
                        <use fill="#555555" fill-rule="evenodd" xlink:href="#path-3"></use>
                    </g>
                </g>
            </g>
        </g>
    </g>
</svg>