<?xml version="1.0" encoding="UTF-8"?>
<svg width="22px" height="28px" viewBox="0 0 22 28" version="1.1" xmlns="http://www.w3.org/2000/svg" xmlns:xlink="http://www.w3.org/1999/xlink">
    <!-- Generator: Sketch 52.5 (67469) - http://www.bohemiancoding.com/sketch -->
    <title>Icon mobile/ icon-live-casino</title>
    <desc>Created with Sketch.</desc>
    <defs>
        <path d="M9.28756692,9.49945066 L9.47372876,9.95874023 C9.55901683,10.1689453 9.45532906,10.4077759 9.24210877,10.4917297 C9.19167191,10.5118103 9.13928681,10.5212097 9.08798409,10.5212097 C8.92303607,10.5212097 8.76696313,10.4237976 8.70202301,10.2633667 L8.62279597,10.0681152 L7.71666407,10.0681152 L7.63743703,10.2633667 C7.55214896,10.4735717 7.31035499,10.5758972 7.09713476,10.4919434 C6.88413098,10.4077759 6.78044315,10.1691589 6.86573128,9.95874023 L7.05189312,9.49966432 C7.05210957,9.49902344 7.05232603,9.49838255 7.05254248,9.49795534 L7.78376889,7.69369505 C7.84697733,7.53796387 7.99980318,7.43585208 8.16973002,7.43585208 C8.3396568,7.43585208 8.49248271,7.53796387 8.55547464,7.69369505 L9.28691751,9.49795534 C9.28713396,9.49838255 9.28735047,9.49902344 9.28756692,9.49945066 Z M8.04915777,9.24801634 L8.29030227,9.24801634 L8.16973002,8.95043945 L8.04915777,9.24801634 Z M20.2587767,25.1321716 C20.471997,25.2163391 20.5756848,25.4551697 20.4903967,25.6653747 L20.3042349,26.1244507 C20.3040184,26.1250915 20.3038019,26.1255188 20.3035855,26.1261596 L19.5721427,27.9304199 C19.5091507,28.0861511 19.3563248,28.1880493 19.186398,28.1880493 C19.0164712,28.1880493 18.8636453,28.0861511 18.8004369,27.9304199 L18.0692105,26.125946 C18.068994,26.1255188 18.0687775,26.1250915 18.0685611,26.1246643 L17.8823992,25.6653747 C17.7971112,25.4549561 17.9007989,25.2163391 18.1138027,25.1321716 C18.327023,25.0480042 18.5688169,25.1503296 18.654105,25.3607483 L18.733332,25.5557861 L19.6394639,25.5557861 L19.718691,25.3607483 C19.8037626,25.1503296 20.045773,25.0480042 20.2587767,25.1321716 Z M19.0658257,26.3760986 L19.186398,26.6736755 L19.3069702,26.3760986 L19.0658257,26.3760986 Z M13.9719183,13.6715088 L16.5686595,16.2339172 C16.9938012,16.6536865 17.2280187,17.2116699 17.2280187,17.8053284 C17.2280187,18.3987732 16.9938012,18.9567566 16.5686595,19.3765259 C15.9896096,19.9477539 15.1717963,20.1419372 14.4297465,19.9599304 L14.9880156,21.5264282 C15.0328243,21.6518249 15.0131258,21.7911072 14.9351976,21.8996277 C14.8572694,22.0081482 14.7308525,22.0726624 14.5959934,22.0726624 L12.7599181,22.0726624 C12.6252755,22.0726624 12.4986421,22.0081482 12.4207139,21.8996277 C12.3430022,21.7911072 12.3230872,21.6518249 12.3678959,21.5264282 L12.926165,19.960144 C12.7469301,20.0041504 12.5633659,20.0265808 12.3795852,20.0265808 C11.8031329,20.0265808 11.2264641,19.8099671 10.7874685,19.3767395 C10.3621104,18.9569702 10.1278928,18.3989868 10.1278928,17.805542 C10.1278928,17.2118835 10.3621104,16.6539001 10.7874685,16.2341309 L13.3842097,13.6715088 C13.5465601,13.5112915 13.8095678,13.5112915 13.9719183,13.6715088 Z M13.3467609,21.2525635 L14.0093671,21.2525635 L13.6781722,20.322876 L13.3467609,21.2525635 Z M15.9809509,18.7967529 C16.5346741,18.2500915 16.5346741,17.3607788 15.9809509,16.8141174 L13.6781722,14.5415954 L11.3753936,16.8141174 C11.1069742,17.07901 10.959127,17.4310608 10.959127,17.805542 C10.959127,18.1800232 11.1069742,18.532074 11.3751771,18.7967529 C11.9291168,19.3434143 12.83027,19.3434143 13.3842097,18.7967529 C13.3850756,18.7956848 13.3863744,18.7948303 13.3874567,18.7937622 C13.3896214,18.791626 13.392219,18.7894897 13.3946001,18.7873535 C13.4067223,18.7760315 13.4194939,18.7657776 13.4324819,18.7563782 C13.4355124,18.7542419 13.4383265,18.7518921 13.4413571,18.7497559 C13.4571591,18.7390747 13.4733942,18.7294617 13.4900622,18.7211303 C13.4920104,18.7200622 13.4941751,18.7192077 13.4961233,18.7181396 C13.5121419,18.7104492 13.5285934,18.7040405 13.5452613,18.6984863 C13.5480754,18.6974182 13.550673,18.6965637 13.5534871,18.6954956 C13.5714539,18.6899414 13.5898536,18.6858826 13.6082533,18.6826782 C13.6119332,18.6820374 13.6158296,18.6816101 13.6197261,18.6809693 C13.6389916,18.6784057 13.6582573,18.6764831 13.6775228,18.6764831 C13.6777393,18.6764831 13.6779557,18.6764831 13.6779557,18.6764831 C13.6781722,18.6764831 13.6783887,18.6764831 13.6783887,18.6764831 C13.6978707,18.6764831 13.7171364,18.6784057 13.7364019,18.6809693 C13.7400819,18.6816101 13.7439782,18.6820374 13.7478747,18.6826782 C13.7662744,18.6858826 13.7846741,18.6899414 13.8026409,18.6954956 C13.805455,18.6965637 13.8080526,18.6976318 13.8108667,18.6984863 C13.8275346,18.7040405 13.8437697,18.7104492 13.8597882,18.7181396 C13.8617364,18.7192077 13.8639011,18.7200622 13.8660658,18.7211303 C13.8827338,18.7294617 13.8989689,18.7390747 13.9145545,18.7497559 C13.9178015,18.7518921 13.9206155,18.7542419 13.9236461,18.7563782 C13.9366341,18.7657776 13.9491893,18.7760315 13.9613114,18.7871399 C13.9636925,18.7894897 13.9662901,18.791626 13.9686713,18.7937622 C13.9697536,18.7948303 13.9710524,18.7956848 13.9719183,18.7967529 C14.525858,19.3432007 15.4270112,19.3432007 15.9809509,18.7967529 Z M26.9465326,3.31613158 L26.9465326,25.0597534 C26.9465326,25.7856445 26.3482171,26.3760986 25.6128778,26.3760986 L22.3563445,26.3760986 L22.3563445,28.6838684 C22.3563445,29.4095459 21.758029,30 21.0224732,30 L6.33365474,30 C5.59831549,30 5,29.4095459 5,28.6838684 L5,6.94024661 C5,6.21435547 5.59831549,5.62390137 6.33365474,5.62390137 L9.59018812,5.62390137 L9.59018812,3.31613158 C9.59018812,2.5904541 10.1885036,2 10.9240594,2 L25.6128778,2 C26.3482171,2 26.9465326,2.5904541 26.9465326,3.31613158 Z M25.6128778,25.5557861 C25.8899559,25.5557861 26.1152983,25.3331909 26.1152983,25.0597534 L26.1152983,3.31613158 C26.1152983,3.04269408 25.8899559,2.8203125 25.6128778,2.8203125 L10.9240594,2.8203125 C10.6469813,2.8203125 10.4216389,3.04269408 10.4216389,3.31613158 L10.4216389,5.62411498 L11.4262634,5.62411498 L11.4264798,4.22232057 C11.4264798,3.99566653 11.6124252,3.81216432 11.842097,3.81216432 C12.0715523,3.81216432 12.2577141,3.99566653 12.2577141,4.22232057 L12.2574977,5.04391478 L12.463358,4.84075925 C12.4642238,4.83990481 12.4653062,4.83905027 12.4661721,4.83819583 L13.3842097,3.93200684 C13.5463437,3.77200319 13.8095678,3.77200319 13.9719183,3.93200684 C14.1342687,4.09222409 14.1342687,4.35198972 13.9719183,4.51220703 L13.2948087,5.18020631 L13.5946159,5.62390137 L21.0224732,5.62390137 C21.758029,5.62390137 22.356128,6.21435547 22.356128,6.94024661 L22.356128,9.54238893 C22.356128,9.76882936 22.1701826,9.95254518 21.9405109,9.95254518 C21.7110556,9.95254518 21.5248937,9.76882936 21.5248937,9.54238893 L21.5248937,6.94024661 C21.5248937,6.66680911 21.2995513,6.44421387 21.0224732,6.44421387 L13.3731699,6.44421387 L13.3725205,6.44421387 L13.3714381,6.44421387 L6.33365474,6.44421387 C6.05657665,6.44421387 5.83123426,6.66680911 5.83123426,6.94024661 L5.83123426,28.6838684 C5.83123426,28.9573059 6.05657665,29.1796875 6.33365474,29.1796875 L21.0226897,29.1796875 C21.2997678,29.1796875 21.5251102,28.9573059 21.5251102,28.6838684 L21.5251102,25.967865 C21.5251102,25.9672241 21.5248937,25.9665833 21.5248937,25.9659424 C21.5248937,25.9653015 21.5251102,25.9646607 21.5251102,25.9638061 L21.5251102,11.1830139 C21.5251102,10.9565735 21.711272,10.7728577 21.9407273,10.7728577 C22.1701826,10.7728577 22.3563445,10.9565735 22.3563445,11.1830139 L22.3563445,25.5557861 L25.6128778,25.5557861 Z M24.6948402,21.4790039 C24.9242955,21.4790039 25.1104574,21.6625061 25.1104574,21.8889465 L25.1104574,24.1539917 C25.1104574,24.3804322 24.9242955,24.5641479 24.6948402,24.5641479 L24.6946238,24.5641479 C24.4651684,24.5641479 24.2792231,24.3804322 24.2792231,24.1539917 L24.2792231,23.3321839 L24.0733627,23.5353393 C24.0724969,23.5361939 24.071631,23.5370483 24.0707651,23.5381165 L23.152511,24.4440918 C23.0715523,24.5242005 22.9650504,24.5641479 22.8587649,24.5641479 C22.7524795,24.5641479 22.6459777,24.5239868 22.5648024,24.4440918 C22.402452,24.2838745 22.402452,24.0241089 22.5648024,23.8641052 L23.241912,23.1958923 L22.5128503,22.1164551 C22.3855676,21.9280396 22.4370867,21.6734009 22.6282273,21.5477905 C22.8191515,21.4221802 23.0771804,21.4730225 23.2044631,21.661438 L23.8413098,22.6043701 L24.2792231,22.1722107 L24.2792231,21.8889465 C24.2792231,21.6625061 24.4653849,21.4790039 24.6948402,21.4790039 Z" id="path-1"></path>
        <rect id="path-3" x="0" y="0" width="32" height="32"></rect>
        <filter x="-46.9%" y="-46.9%" width="193.8%" height="193.8%" filterUnits="objectBoundingBox" id="filter-4">
            <feOffset dx="0" dy="0" in="SourceAlpha" result="shadowOffsetOuter1"></feOffset>
            <feGaussianBlur stdDeviation="5" in="shadowOffsetOuter1" result="shadowBlurOuter1"></feGaussianBlur>
            <feColorMatrix values="0 0 0 0 0   0 0 0 0 0   0 0 0 0 0  0 0 0 0 0" type="matrix" in="shadowBlurOuter1"></feColorMatrix>
        </filter>
    </defs>
    <g id="Playground" stroke="none" stroke-width="1" fill="none" fill-rule="evenodd">
        <g transform="translate(-521.000000, -108.000000)" id="Icon-mobile/-icon-live-casino">
            <g transform="translate(516.000000, 106.000000)">
                <polygon id="Shape" points="0 0 32 0 32 32 0 32"></polygon>
                <mask id="mask-2" fill="white">
                    <use xlink:href="#path-1"></use>
                </mask>
                <g id="Shape"></g>
                <g id="↳-Color" stroke-width="1" fill-rule="evenodd" mask="url(#mask-2)">
                    <g id="BG">
                        <use fill="black" fill-opacity="1" filter="url(#filter-4)" xlink:href="#path-3"></use>
                        <use fill="#555555" fill-rule="evenodd" xlink:href="#path-3"></use>
                    </g>
                </g>
            </g>
        </g>
    </g>
</svg>