<?xml version="1.0" encoding="UTF-8"?>
<svg width="26px" height="23px" viewBox="0 0 26 23" version="1.1" xmlns="http://www.w3.org/2000/svg" xmlns:xlink="http://www.w3.org/1999/xlink">
    <!-- Generator: Sketch 52.5 (67469) - http://www.bohemiancoding.com/sketch -->
    <title>Icon mobile/ icon-deposit</title>
    <desc>Created with Sketch.</desc>
    <defs>
        <path d="M30,14.7491224 L30,20.7399953 C30,21.4451205 29.4200542,22.0156799 28.7154472,22.0156799 L28.4932249,22.0156799 L28.4932249,24.4809267 C28.4932249,25.8696466 27.3550136,27 25.9566396,27 L6.53658537,27 C5.14363144,27 4.01084011,25.8804119 4,24.4970747 C4,24.491692 4,24.4863094 4,24.4809267 L4,22.9845542 C4,22.6938919 4.23848238,22.4570559 4.53116531,22.4570559 C4.82384824,22.4570559 5.06233062,22.6938919 5.06233062,22.9845542 L5.06233062,24.4701615 C5.06233062,24.4755441 5.06233062,24.4755441 5.06233062,24.4809267 C5.06233062,25.2937047 5.72899729,25.9503861 6.54200542,25.9503861 L25.9403794,25.9503861 C26.7588076,25.9503861 27.4200542,25.288322 27.4200542,24.4809267 L27.4200542,22.0156799 L23.4200542,22.0156799 C23.403794,22.0156799 23.3875339,22.0102972 23.3712737,22.0102972 C23.3658537,22.0102972 23.3604336,22.0102972 23.3550136,22.0102972 C23.3387534,22.0049146 23.3279133,22.0049146 23.3116531,21.9995319 L23.300813,21.9941493 C23.2845528,21.9887667 23.2682927,21.983384 23.2574526,21.9780014 C23.2520325,21.9780014 23.2466125,21.9726188 23.2411924,21.9726188 C23.2303523,21.9672361 23.2195122,21.9618535 23.203252,21.9564709 C23.197832,21.9564709 23.197832,21.9510882 23.1924119,21.9510882 C23.1761518,21.940323 23.1598916,21.9295577 23.1436314,21.9187924 C23.1436314,21.9134098 23.1382114,21.9134098 23.1327913,21.9080271 C23.1219512,21.8972619 23.1111111,21.8918792 23.100271,21.881114 C23.0948509,21.8757313 23.0894309,21.8703487 23.0840108,21.8649661 C23.0731707,21.8595834 23.0677507,21.8488182 23.0569106,21.8380529 C23.0569106,21.8326703 23.0514905,21.8272876 23.0460705,21.821905 C23.0352304,21.8057571 23.0243902,21.7949918 23.0135501,21.7788439 L23.0081301,21.7734613 L21.00271,18.7860988 C20.9864499,18.7591856 20.9647696,18.7268898 20.9539295,18.694594 C20.9485095,18.6784461 20.9485095,18.6676808 20.9430894,18.6569155 C20.9430894,18.6569155 20.9376694,18.6515329 20.9376694,18.6461502 C20.9322493,18.635385 20.9322493,18.6192371 20.9268293,18.6084718 C20.9268293,18.6030892 20.9268293,18.6030892 20.9268293,18.5977065 C20.9268293,18.5815586 20.9214092,18.5707934 20.9214092,18.5600281 C20.9214092,18.5546454 20.9214092,18.5492628 20.9214092,18.5438802 C20.9214092,18.5331149 20.9214092,18.5223496 20.9214092,18.5115844 C20.9214092,18.5008191 20.9214092,18.4954365 20.9214092,18.4900538 C20.9214092,18.4846712 20.9214092,18.4739059 20.9214092,18.4685233 C20.9214092,18.457758 20.9214092,18.4469927 20.9214092,18.4362275 C20.9214092,18.4308448 20.9214092,18.4254622 20.9214092,18.4200796 C20.9214092,18.4039317 20.9268293,18.3931664 20.9268293,18.3824011 L20.9268293,18.3716359 C20.9322493,18.3608706 20.9322493,18.3447227 20.9376694,18.3339574 L20.9430894,18.3231921 C20.9430894,18.3124269 20.9485095,18.3016616 20.9539295,18.2908963 C20.9647696,18.2586005 20.9810298,18.2263047 21.00271,18.1993915 L23.0081301,15.212029 L23.0189702,15.1958811 C23.0243902,15.1851158 23.0352304,15.1797332 23.0406504,15.1689679 C23.0460705,15.1582027 23.0514905,15.15282 23.0569106,15.1474374 C23.0623306,15.1420548 23.0677507,15.1366721 23.0731707,15.1312895 C23.0840108,15.1259069 23.0894309,15.1151416 23.100271,15.109759 C23.1056911,15.1043763 23.1056911,15.1043763 23.1111111,15.0989937 C23.1219512,15.0882284 23.1273713,15.0828458 23.1382114,15.0774631 C23.1436314,15.0720805 23.1490515,15.0720805 23.1544715,15.0666979 C23.1653117,15.0613152 23.1707317,15.0613152 23.1761518,15.0559326 L23.1815718,15.05055 C23.1869919,15.0451673 23.1924119,15.0451673 23.197832,15.0397847 C23.203252,15.0344021 23.2086721,15.0290194 23.2140921,15.0290194 C23.2303523,15.0236368 23.2357724,15.0182542 23.2466125,15.0128715 C23.2466125,15.0128715 23.2520325,15.0074889 23.2574526,15.0074889 C23.2737127,15.0021062 23.2845528,15.0021062 23.295393,14.9967236 L23.3062331,14.991341 C23.3170732,14.9859583 23.3279133,14.9859583 23.3441734,14.9805757 L23.3550136,14.9805757 C23.3712737,14.9805757 23.3875339,14.9751931 23.403794,14.9751931 C23.4146341,14.9751931 23.4308943,14.9751931 23.4417344,14.9751931 L23.4525745,14.9751931 L27.4417344,14.9751931 L27.4417344,12.5099462 C27.4417344,11.6971683 26.7804878,11.0404868 25.9674797,11.0404868 L6.54742547,11.0404868 C6.01084011,11.0404868 5.49593496,10.8736251 5.06775068,10.5668149 L5.06775068,21.4774163 C5.06775068,21.7680786 4.82926829,22.0049146 4.53658537,22.0049146 C4.24390244,22.0049146 4.00542005,21.7680786 4.00542005,21.4774163 L4.00542005,8.49988299 L4.00542005,8.49450035 C4.01084011,7.11116312 5.14905149,5.98619237 6.54200542,5.98619237 L7.62601626,5.98619237 L8.02710027,4.3821671 C8.02710027,4.37678446 8.02710027,4.37678446 8.02710027,4.37140183 C8.02710027,4.36601919 8.03252033,4.36063656 8.03252033,4.35525392 C8.03794038,4.34448865 8.03794038,4.33910601 8.04336043,4.32834074 C8.04878049,4.31757547 8.04878049,4.31219284 8.05420054,4.30142757 C8.0596206,4.29604493 8.0596206,4.28527966 8.06504065,4.27989703 C8.06504065,4.27451439 8.0704607,4.26374912 8.07588076,4.25836649 C8.07588076,4.25298385 8.08130081,4.24221858 8.08672087,4.23683595 C8.09214092,4.23145331 8.09756098,4.22068804 8.10298103,4.21530541 C8.10840108,4.20992277 8.10840108,4.20454014 8.11382114,4.1991575 C8.12466125,4.19377487 8.1300813,4.1830096 8.13550136,4.17762696 C8.14634146,4.17224432 8.14634146,4.16686169 8.15176152,4.16147905 C8.15718157,4.15609642 8.16802168,4.14533115 8.17344173,4.13994851 C8.18428184,4.13456588 8.18428184,4.13456588 8.1897019,4.12918324 C8.20054201,4.12380061 8.20596206,4.11303534 8.21680217,4.1076527 C8.22222222,4.10227007 8.22764228,4.10227007 8.23306233,4.09688743 C8.23848238,4.0915048 8.24932249,4.08612216 8.2601626,4.08073953 C8.26558266,4.07535689 8.27100271,4.06997426 8.27642276,4.06997426 C8.28184282,4.06459162 8.29268293,4.05920899 8.30352304,4.05382635 L8.3197832,4.04844372 C8.33062331,4.04844372 8.34146341,4.04306108 8.35230352,4.03767845 C8.35772358,4.03767845 8.36314363,4.03229581 8.36856369,4.03229581 C8.37940379,4.02691318 8.3902439,4.02691318 8.40108401,4.02153054 L8.41734417,4.01614791 C8.42818428,4.01614791 8.43902439,4.01076527 8.4498645,4.01076527 L8.47154472,4.00538264 C8.48238482,4 8.49322493,4 8.50406504,4 C8.51490515,4 8.5203252,4 8.52574526,4 C8.53116531,4 8.54200542,4 8.55284553,4 C8.55826558,4 8.56910569,4 8.57452575,4 C8.58536585,4.00538264 8.59620596,4.00538264 8.60704607,4.00538264 C8.61246612,4.01076527 8.62330623,4.01076527 8.62872629,4.01076527 C8.63414634,4.01076527 8.64498645,4.01614791 8.6504065,4.01614791 C8.66124661,4.01614791 8.66666667,4.02153054 8.67208672,4.02153054 L8.68834688,4.02691318 L15.6476965,5.99695764 L25.9566396,5.99695764 C27.3550136,5.99695764 28.4932249,7.12731102 28.4932249,8.51603089 L28.4932249,13.4734379 L28.7154472,13.4734379 C29.4254743,13.4734379 30,14.0493798 30,14.7491224 Z M7.13279133,7.99391528 L7.37127371,7.05195413 L6.54200542,7.05195413 C5.72899729,7.05195413 5.06233062,7.70863562 5.06233062,8.51603089 C5.06233062,9.3288088 5.72899729,9.98549029 6.54200542,9.98549029 L25.9620596,9.98549029 C26.498645,9.98549029 27.0135501,10.152352 27.4417344,10.4591622 L27.4417344,8.52141353 C27.4417344,7.70863562 26.7750678,7.05195413 25.9620596,7.05195413 L19.3550136,7.05195413 L22.6720867,7.99391528 L25.4579946,7.99391528 C25.7506775,7.99391528 25.9891599,8.23075123 25.9891599,8.52141353 C25.9891599,8.81207582 25.7506775,9.04891177 25.4579946,9.04891177 L6.54200542,9.04891177 C6.24932249,9.04891177 6.01084011,8.81207582 6.01084011,8.52141353 C6.01084011,8.23075123 6.24932249,7.99391528 6.54200542,7.99391528 L7.13279133,7.99391528 Z M8.22222222,7.99391528 L18.8130081,7.99391528 L8.92682927,5.18956237 L8.22222222,7.99391528 Z M28.498645,14.9698104 L28.7100271,14.9698104 C28.7154472,14.9698104 28.7154472,14.9698104 28.7208672,14.9698104 C28.8455285,14.9698104 28.9430894,14.872923 28.9430894,14.7491224 C28.9430894,14.6253218 28.8455285,14.5284344 28.7208672,14.5284344 L28.498645,14.5284344 L28.498645,14.9698104 Z M28.9430894,16.0032764 C28.8726287,16.0140417 28.8075881,16.0194243 28.7371274,16.0194243 C28.7317073,16.0194243 28.7262873,16.0194243 28.7208672,16.0194243 L23.7344173,16.0194243 L22.0813008,18.4846712 L23.7344173,20.9499181 L28.7208672,20.9499181 C28.8455285,20.9499181 28.9430894,20.8530307 28.9430894,20.72923 L28.9430894,16.0032764 Z M25.3224932,16.9290896 C26.1463415,16.9290896 26.8130081,17.5911538 26.8130081,18.4093143 C26.8130081,19.2274748 26.1463415,19.889539 25.3224932,19.889539 C24.498645,19.889539 23.8319783,19.2274748 23.8319783,18.4093143 C23.8319783,17.5911538 24.498645,16.9290896 25.3224932,16.9290896 Z M25.3224932,19.0821437 C25.696477,19.0821437 26,18.7807161 26,18.4093143 C26,18.0379125 25.696477,17.7364849 25.3224932,17.7364849 C24.9485095,17.7364849 24.6449864,18.0379125 24.6449864,18.4093143 C24.6449864,18.7807161 24.9485095,19.0821437 25.3224932,19.0821437 Z" id="path-1"></path>
        <rect id="path-3" x="0" y="0" width="32" height="32"></rect>
        <filter x="-46.9%" y="-46.9%" width="193.8%" height="193.8%" filterUnits="objectBoundingBox" id="filter-4">
            <feOffset dx="0" dy="0" in="SourceAlpha" result="shadowOffsetOuter1"></feOffset>
            <feGaussianBlur stdDeviation="5" in="shadowOffsetOuter1" result="shadowBlurOuter1"></feGaussianBlur>
            <feColorMatrix values="0 0 0 0 0   0 0 0 0 0   0 0 0 0 0  0 0 0 0 0" type="matrix" in="shadowBlurOuter1"></feColorMatrix>
        </filter>
    </defs>
    <g id="Playground" stroke="none" stroke-width="1" fill="none" fill-rule="evenodd">
        <g transform="translate(-296.000000, -110.000000)" id="Icon-mobile/-icon-deposit">
            <g transform="translate(292.000000, 106.000000)">
                <mask id="mask-2" fill="white">
                    <use xlink:href="#path-1"></use>
                </mask>
                <g id="Shape"></g>
                <g id="↳-Color" stroke-width="1" fill-rule="evenodd" mask="url(#mask-2)">
                    <g id="BG">
                        <use fill="black" fill-opacity="1" filter="url(#filter-4)" xlink:href="#path-3"></use>
                        <use fill="#555555" fill-rule="evenodd" xlink:href="#path-3"></use>
                    </g>
                </g>
            </g>
        </g>
    </g>
</svg>