<?xml version="1.0" encoding="UTF-8"?>
<svg width="26px" height="27px" viewBox="0 0 26 27" version="1.1" xmlns="http://www.w3.org/2000/svg" xmlns:xlink="http://www.w3.org/1999/xlink">
    <!-- Generator: Sketch 52.5 (67469) - http://www.bohemiancoding.com/sketch -->
    <title>Icon mobile/ icon-live-chet</title>
    <desc>Created with Sketch.</desc>
    <defs>
        <path d="M28.9845201,15.2990991 C28.9845201,19.6558559 26.5882353,23.5099099 22.7987616,25.5765766 L23.244582,26.972973 L18.8421053,26.3585586 L22.0743034,23.2864865 L22.5201238,24.627027 C25.8637771,22.7837838 28.0371517,19.2648649 28.0371517,15.2990991 C28.0371517,14.7405405 27.9814241,14.1261261 27.869969,13.5675676 C26.9783282,8.42882883 22.5758514,4.68648649 17.3931889,4.68648649 C16.8359133,4.68648649 16.2229102,4.74234234 15.6656347,4.85405405 C12.6006192,5.35675676 9.92569659,7.2 8.30959752,9.88108108 L7.52941176,9.37837838 C9.25696594,6.47387387 12.2105263,4.46306306 15.5541796,3.9045045 C16.1671827,3.79279279 16.8359133,3.73693694 17.4489164,3.73693694 C23.0773994,3.73693694 27.869969,7.81441441 28.8173375,13.4 C28.9287926,14.0144144 28.9845201,14.6846847 28.9845201,15.2990991 Z M8.6996904,16.9747748 L7.91950464,17.3657658 L6.47058824,11.3333333 L6.6377709,11.3333333 C7.02786378,11.3333333 7.3622291,11.3891892 7.58513932,11.445045 C7.86377709,11.5009009 8.14241486,11.7243243 8.19814241,12.0594595 L9.14551084,16.0252252 C9.14551084,16.0252252 9.14551084,16.0810811 9.14551084,16.0810811 C9.20123839,16.4162162 9.03405573,16.8072072 8.6996904,16.9747748 Z M18.1176471,25.3531532 C18.3962848,25.5207207 18.5634675,25.8 18.5077399,26.0792793 C18.5077399,26.3027027 18.5077399,26.6378378 18.3962848,27.0288288 L18.3405573,27.1963964 L12.9349845,24.1243243 L13.5479876,23.4540541 C13.8266254,23.2306306 14.2167183,23.1189189 14.5510836,23.2864865 C14.5510836,23.3423423 14.6068111,23.3423423 14.6068111,23.3423423 L18.1176471,25.3531532 Z M12.7678019,24.3477477 L12.7678019,24.2918919 L18.2291022,27.4198198 L18.1733746,27.5873874 C18.1176471,27.6432432 18.1176471,27.754955 18.0619195,27.8108108 C17.9504644,28.0900901 17.7275542,28.3135135 17.504644,28.5369369 C16.9473684,29.0396396 16.1671827,29.2630631 15.1083591,29.2630631 C14.996904,29.2630631 14.9411765,29.2630631 14.8297214,29.2630631 C12.5448916,29.1513514 9.42414861,26.8612613 6.80495356,23.3981982 L6.80495356,23.3423423 C4.24148607,19.8792793 2.90402477,16.1927928 3.46130031,14.0144144 C3.73993808,12.8414414 4.24148607,12.1153153 4.91021672,11.6684685 C5.18885449,11.5009009 5.46749226,11.3891892 5.80185759,11.3333333 C5.91331269,11.2774775 5.96904025,11.2774775 6.08049536,11.2774775 L6.24767802,11.2774775 L6.30340557,11.3891892 L7.75232198,17.4216216 L7.64086687,17.4774775 C7.58513932,17.4774775 7.58513932,17.4774775 7.52941176,17.5333333 C7.3622291,17.7009009 7.30650155,17.9801802 7.3622291,18.2036036 C7.58513932,18.7621622 8.08668731,19.7675676 9.36842105,21.4990991 L9.25696594,21.554955 L9.36842105,21.4990991 C9.36842105,21.4990991 9.42414861,21.6108108 9.42414861,21.6108108 C10.7058824,23.3981982 11.5417957,24.1243243 11.9876161,24.4594595 C12.2105263,24.5711712 12.4334365,24.5711712 12.6563467,24.4594595 C12.7120743,24.4036036 12.7120743,24.4036036 12.7678019,24.3477477 Z M10.3157895,17.9243243 L12.5448916,13.9585586 L12.5448916,12.8972973 L11.5975232,12.8972973 L11.5975232,14.1261261 L10.371517,14.1261261 L10.371517,12.5063063 C10.371517,12.0594595 10.6501548,11.7801802 11.0959752,11.7801802 L13.0464396,11.7801802 C13.4922601,11.7801802 13.7708978,12.0594595 13.7708978,12.5063063 L13.7708978,13.790991 C13.7708978,14.0702703 13.7151703,14.2936937 13.5479876,14.572973 L11.8204334,17.5891892 L13.7708978,17.5891892 L13.7708978,18.7063063 L10.3157895,18.7063063 L10.3157895,17.9243243 Z M16.9473684,11.7801802 L16.8916409,12.0036036 L15.4427245,16.3603604 L16.2229102,16.3603604 L16.2229102,14.3495495 L17.3931889,14.3495495 L17.3931889,16.3603604 L17.8947368,16.3603604 L17.8947368,17.4774775 L17.3931889,17.4774775 L17.3931889,18.7063063 L16.2229102,18.7063063 L16.2229102,17.4774775 L13.993808,17.4774775 L13.993808,16.6954955 L15.7213622,11.7801802 L16.9473684,11.7801802 Z M21.7956656,12.0594595 L19.120743,18.7063063 L18.006192,18.7063063 L18.006192,18.4828829 L20.6811146,11.7801802 L21.7956656,11.7801802 L21.7956656,12.0594595 Z M23.9133127,18.7063063 L22.6315789,18.7063063 L24.1362229,12.8972973 L23.1331269,12.8972973 L23.1331269,13.9027027 L21.9628483,13.9027027 L21.9628483,11.7801802 L25.4736842,11.7801802 L25.4736842,12.618018 L23.9133127,18.7063063 Z" id="path-1"></path>
        <rect id="path-3" x="0" y="0" width="32" height="32"></rect>
        <filter x="-46.9%" y="-46.9%" width="193.8%" height="193.8%" filterUnits="objectBoundingBox" id="filter-4">
            <feOffset dx="0" dy="0" in="SourceAlpha" result="shadowOffsetOuter1"></feOffset>
            <feGaussianBlur stdDeviation="5" in="shadowOffsetOuter1" result="shadowBlurOuter1"></feGaussianBlur>
            <feColorMatrix values="0 0 0 0 0   0 0 0 0 0   0 0 0 0 0  0 0 0 0 0" type="matrix" in="shadowBlurOuter1"></feColorMatrix>
        </filter>
    </defs>
    <g id="Playground" stroke="none" stroke-width="1" fill="none" fill-rule="evenodd">
        <g transform="translate(-654.000000, -109.000000)" id="Icon-mobile/-icon-live-chet">
            <g transform="translate(651.000000, 106.000000)">
                <mask id="mask-2" fill="white">
                    <use xlink:href="#path-1"></use>
                </mask>
                <g id="Shape"></g>
                <g id="↳-Color" stroke-width="1" fill-rule="evenodd" mask="url(#mask-2)">
                    <g id="BG">
                        <use fill="black" fill-opacity="1" filter="url(#filter-4)" xlink:href="#path-3"></use>
                        <use fill="#555555" fill-rule="evenodd" xlink:href="#path-3"></use>
                    </g>
                </g>
            </g>
        </g>
    </g>
</svg>