<?xml version="1.0" encoding="UTF-8"?>
<svg width="27px" height="26px" viewBox="0 0 27 26" version="1.1" xmlns="http://www.w3.org/2000/svg" xmlns:xlink="http://www.w3.org/1999/xlink">
    <!-- Generator: Sketch 52.5 (67469) - http://www.bohemiancoding.com/sketch -->
    <title>Icon mobile/ icon-whatsapp</title>
    <desc>Created with Sketch.</desc>
    <defs>
        <path d="M22.7111111,19.3142921 C23.6817778,20.2793954 24.4791111,21.2965103 24.4906667,21.3138475 C24.664,21.5334519 24.6524444,21.8455212 24.4617778,22.0535675 C24.2826667,22.2442765 22.6591111,23.972216 21.2031111,24.1051345 C21.1164444,24.1109135 21.0297778,24.1166926 20.9431111,24.1166926 C19.0017778,24.1166926 15.9106667,22.2789509 13.068,19.4356524 C10.0982222,16.4709936 8.22622222,13.2000445 8.39955556,11.3045121 C8.45733333,10.6861525 8.79822222,9.97532785 9.41066667,9.18359635 C9.88444444,8.58257391 10.364,8.13180707 10.4564444,8.04512114 C10.6644444,7.85441209 10.9764444,7.84285397 11.196,8.01622583 C11.2364444,8.0509002 12.236,8.83685263 13.1893333,9.79039787 C14.1426667,10.7439431 14.9284444,11.7437208 14.9631111,11.7841743 C15.1422222,12.0095577 15.1191111,12.3389642 14.9168889,12.5412314 L13.8537778,13.6045788 L14.6973333,14.4483218 C14.9226667,14.6737053 14.9226667,15.0320071 14.6973333,15.2573905 C14.472,15.4769949 14.1137778,15.4769949 13.8884444,15.2573905 L12.6404444,14.0091131 C12.5306667,13.899311 12.4728889,13.7548344 12.4728889,13.6045788 C12.4728889,13.4485441 12.5306667,13.3098466 12.6404444,13.2000445 L13.7382222,12.1020227 C13.4377778,11.7437208 12.9293333,11.1542565 12.3746667,10.5994665 C11.82,10.0446766 11.2306667,9.53611914 10.8724444,9.23560791 C10.2426667,9.90020004 9.58977778,10.7959547 9.532,11.4143143 C9.38755556,12.9631029 11.1728889,15.9335408 13.8711111,18.6323627 C16.5635556,21.3311847 19.5333333,23.1169149 21.0875556,22.9724383 C21.7057778,22.9146477 22.6013333,22.2616137 23.2657778,21.6316959 C22.9653333,21.2733941 22.4568889,20.6839298 21.9022222,20.1291398 C21.3475556,19.5743499 20.7582222,19.0657924 20.4,18.7652812 L19.3022222,19.863303 C19.0768889,20.0829073 18.7186667,20.0829073 18.4933333,19.863303 L15.0555556,16.4247611 C14.9457778,16.3149589 14.888,16.1704823 14.888,16.0202267 C14.888,15.864192 14.9457778,15.7254946 15.0555556,15.6156924 C15.2808889,15.396088 15.6391111,15.396088 15.8644444,15.6156924 L18.8977778,18.6496999 L19.9608889,17.5863525 C20.1631111,17.3840854 20.4924444,17.3609691 20.7177778,17.54012 C20.7582222,17.5747944 21.7635556,18.3665259 22.7111111,19.3142921 Z M25.6866667,6.80840187 C28.1422222,9.26450322 29.4942222,12.5296733 29.5,15.9971105 C29.5,19.4703267 28.148,22.7354968 25.6924444,25.1915981 C23.2368889,27.6476995 19.9724444,29 16.5,29 C13.9751111,29 11.5253333,28.2718382 9.41644444,26.8964214 L4.78266667,28.439431 C4.57466667,28.5087797 4.35511111,28.4567682 4.19911111,28.3007335 C4.04311111,28.1446988 3.99111111,27.9250945 4.06044444,27.7170482 L5.60311111,23.0822405 C4.228,20.9728829 3.5,18.5283396 3.5,15.9971105 C3.5,12.5296733 4.852,9.26450322 7.30755556,6.80840187 C9.76311111,4.35230051 13.0275556,3 16.5,3 C19.9666667,3 23.2311111,4.35230051 25.6866667,6.80840187 Z M16.5,27.8557457 C23.0346667,27.8557457 28.3502222,22.5390087 28.356,15.9971105 C28.356,9.45521227 23.0346667,4.13847522 16.5,4.13847522 C9.95955556,4.13847522 4.644,9.46099133 4.644,15.9971105 C4.644,18.3954212 5.36044444,20.707046 6.70666667,22.6777062 C6.80488889,22.8221827 6.83377778,23.0128918 6.776,23.1804846 L5.50488889,26.9946655 L9.31822222,25.7232718 C9.376,25.7059347 9.43377778,25.6943765 9.49733333,25.6943765 C9.61288889,25.6943765 9.72844444,25.7290509 9.82088889,25.7926206 C11.7911111,27.1449211 14.1022222,27.8557457 16.5,27.8557457 Z" id="path-1"></path>
        <rect id="path-3" x="0" y="0" width="32" height="32"></rect>
        <filter x="-46.9%" y="-46.9%" width="193.8%" height="193.8%" filterUnits="objectBoundingBox" id="filter-4">
            <feOffset dx="0" dy="0" in="SourceAlpha" result="shadowOffsetOuter1"></feOffset>
            <feGaussianBlur stdDeviation="5" in="shadowOffsetOuter1" result="shadowBlurOuter1"></feGaussianBlur>
            <feColorMatrix values="0 0 0 0 0   0 0 0 0 0   0 0 0 0 0  0 0 0 0 0" type="matrix" in="shadowBlurOuter1"></feColorMatrix>
        </filter>
    </defs>
    <g id="Playground" stroke="none" stroke-width="1" fill="none" fill-rule="evenodd">
        <g transform="translate(-833.000000, -109.000000)" id="Icon-mobile/-icon-whatsapp">
            <g transform="translate(830.000000, 106.000000)">
                <mask id="mask-2" fill="white">
                    <use xlink:href="#path-1"></use>
                </mask>
                <g id="Shape"></g>
                <g id="↳-Color" stroke-width="1" fill-rule="evenodd" mask="url(#mask-2)">
                    <g id="BG">
                        <use fill="black" fill-opacity="1" filter="url(#filter-4)" xlink:href="#path-3"></use>
                        <use fill="#555555" fill-rule="evenodd" xlink:href="#path-3"></use>
                    </g>
                </g>
            </g>
        </g>
    </g>
</svg>