<?xml version="1.0" encoding="UTF-8"?>
<svg width="28px" height="27px" viewBox="0 0 28 27" version="1.1" xmlns="http://www.w3.org/2000/svg" xmlns:xlink="http://www.w3.org/1999/xlink">
    <!-- Generator: Sketch 52.5 (67469) - http://www.bohemiancoding.com/sketch -->
    <title>Icon mobile/ icon-betting-rules</title>
    <desc>Created with Sketch.</desc>
    <defs>
        <path d="M26.2982239,21.5741379 L26.2982239,19.5724138 L27.2697233,19.5724138 L27.2697233,21.6206897 L27.2697233,29.5810345 C27.2697233,29.8137931 27.0384139,30 26.7608426,30 L4.50888063,30 C4.23130938,30 4,29.8137931 4,29.5810345 L4,3.41896552 C4,3.1862069 4.23130938,3 4.50888063,3 L20.0991326,3 L20.0991326,3.04655172 C20.2379182,3.04655172 20.3767038,3.09310345 20.4692276,3.1862069 L27.1309376,8.77241379 C27.2234614,8.81896552 27.2697233,8.95862069 27.2697233,9.05172414 L27.3159851,9.05172414 L27.3159851,11.0534483 L26.3444857,11.0534483 L26.3444857,9.47068966 L20.1453945,9.47068966 C19.8678232,9.47068966 19.6365138,9.28448276 19.6365138,9.05172414 L19.6365138,3.83793103 L5.01776126,3.83793103 L5.01776126,29.162069 L26.251962,29.162069 L26.2982239,21.5741379 Z M20.6080132,4.48965517 L20.6080132,8.67931034 L25.5580339,8.67931034 L20.6080132,4.48965517 Z M7.7472119,10.0293103 L14.2238744,10.0293103 L14.2238744,10.8672414 L7.7472119,10.8672414 L7.7472119,10.0293103 Z M7.7472119,14.0793103 L22.8748451,14.0793103 L22.8748451,14.9172414 L7.7472119,14.9172414 L7.7472119,14.0793103 Z M7.7472119,18.1293103 L17.9710863,18.1293103 L17.9710863,18.9672414 L7.7472119,18.9672414 L7.7472119,18.1293103 Z M7.7472119,22.1327586 L15.6579926,22.1327586 L15.6579926,22.9706897 L7.7472119,22.9706897 L7.7472119,22.1327586 Z M31.6183395,12.6362069 C32.1272202,13.0551724 32.1272202,13.8 31.6183395,14.2189655 L30.6005783,15.0568966 L21.6257745,22.6913793 C21.5795126,22.737931 21.4869888,22.7844828 21.440727,22.7844828 L18.2023957,23.8551724 C18.1561338,23.9017241 18.0636101,23.9017241 18.0173482,23.9017241 C17.8785626,23.9017241 17.739777,23.8551724 17.6472532,23.762069 C17.5084676,23.6224138 17.4622057,23.4362069 17.5547295,23.2965517 L18.8038001,20.55 C18.8038001,20.5034483 18.850062,20.4568966 18.8963238,20.4103448 L27.9173895,12.7758621 L28.9351508,11.937931 C29.4440314,11.5189655 30.2767451,11.5189655 30.7856258,11.937931 L31.6183395,12.6362069 Z M20.9781082,22.0396552 L29.582817,14.7775862 L29.4440314,14.6844828 L28.2874845,13.7068966 L19.6827757,20.9689655 L18.850062,22.737931 L20.9781082,22.0396552 Z M30.9244114,13.6137931 C31.0169352,13.5206897 31.0169352,13.3344828 30.9244114,13.1948276 L30.0916976,12.4965517 C29.952912,12.4034483 29.7678645,12.4034483 29.6290789,12.4965517 L28.9814126,13.0551724 L29.6290789,13.6137931 L30.2767451,14.1724138 L30.9244114,13.6137931 Z" id="path-1"></path>
        <rect id="path-3" x="0" y="0" width="32" height="32"></rect>
        <filter x="-46.9%" y="-46.9%" width="193.8%" height="193.8%" filterUnits="objectBoundingBox" id="filter-4">
            <feOffset dx="0" dy="0" in="SourceAlpha" result="shadowOffsetOuter1"></feOffset>
            <feGaussianBlur stdDeviation="5" in="shadowOffsetOuter1" result="shadowBlurOuter1"></feGaussianBlur>
            <feColorMatrix values="0 0 0 0 0   0 0 0 0 0   0 0 0 0 0  0 0 0 0 0" type="matrix" in="shadowBlurOuter1"></feColorMatrix>
        </filter>
    </defs>
    <g id="Playground" stroke="none" stroke-width="1" fill="none" fill-rule="evenodd">
        <g transform="translate(-206.000000, -109.000000)" id="Icon-mobile/-icon-betting-rules">
            <g transform="translate(202.000000, 106.000000)">
                <mask id="mask-2" fill="white">
                    <use xlink:href="#path-1"></use>
                </mask>
                <g id="Shape"></g>
                <g id="↳-Color" stroke-width="1" fill-rule="evenodd" mask="url(#mask-2)">
                    <g id="BG">
                        <use fill="black" fill-opacity="1" filter="url(#filter-4)" xlink:href="#path-3"></use>
                        <use fill="#555555" fill-rule="evenodd" xlink:href="#path-3"></use>
                    </g>
                </g>
            </g>
        </g>
    </g>
</svg>