<?xml version="1.0" encoding="UTF-8"?>
<svg width="28px" height="17px" viewBox="0 0 28 17" version="1.1" xmlns="http://www.w3.org/2000/svg" xmlns:xlink="http://www.w3.org/1999/xlink">
    <!-- Generator: Sketch 52.5 (67469) - http://www.bohemiancoding.com/sketch -->
    <title>Icon mobile/ icon-in-play</title>
    <desc>Created with Sketch.</desc>
    <defs>
        <path d="M13.0971922,10.5092251 C16.2817538,10.5092251 18.8725702,13.1966679 18.8725702,16.5 C18.8725702,19.8033321 16.2817538,22.4907749 13.0971922,22.4907749 C9.91263067,22.4907749 7.32181425,19.8033321 7.32181425,16.5 C7.32181425,13.1966679 9.91263067,10.5092251 13.0971922,10.5092251 Z M13.0971922,21.5498155 C15.7815637,21.5498155 17.9654428,19.2844871 17.9654428,16.5 C17.9654428,13.7155129 15.7815637,11.4501845 13.0971922,11.4501845 C10.4128207,11.4501845 8.22894168,13.7155129 8.22894168,16.5 C8.22894168,19.2844871 10.4128207,21.5498155 13.0971922,21.5498155 Z M13.0971922,12.5166052 C15.2146695,12.5166052 16.937365,14.3035498 16.937365,16.5 C16.937365,16.7598303 16.7342894,16.9704797 16.4838013,16.9704797 C16.2333132,16.9704797 16.0302376,16.7598303 16.0302376,16.5 C16.0302376,14.8223948 14.7144795,13.4575646 13.0971922,13.4575646 C12.8467041,13.4575646 12.6436285,13.2469151 12.6436285,12.9870849 C12.6436285,12.7272546 12.8467041,12.5166052 13.0971922,12.5166052 Z M29.5464363,8 C29.7969244,8 30,8.21064945 30,8.4704797 L30,10.2061734 C30,11.1761144 29.33054,11.9958155 28.4081728,12.155214 L22.9339006,13.101631 C21.9822635,13.2661734 21.2915767,14.1119077 21.2915767,15.1126494 L21.2915767,16.2935535 C21.2915767,21.0549336 17.6472829,24.9604797 13.1678272,24.9996863 C13.144121,24.9998745 13.1201123,25 13.0964665,25 C10.9071447,25.0001255 8.85238013,24.1176937 7.30288553,22.5104096 C6.11980994,21.2832731 5.34451836,19.7501993 5.04383585,18.0830701 C4.7259784,18.3297897 4.33161987,18.4760148 3.9049676,18.4760148 C2.85457451,18.4760148 2,17.5895683 2,16.5 C2,15.4104317 2.85457451,14.5239852 3.9049676,14.5239852 C4.33379698,14.5239852 4.72996976,14.6718413 5.04873434,14.9208819 C5.78405184,10.990369 9.21371922,8 13.2962765,8 L17.4514039,8 C17.701892,8 17.9049676,8.21064945 17.9049676,8.4704797 L17.9049676,8.97232472 C17.9049676,9.26634317 18.1355594,9.50553506 18.4190065,9.50553506 C18.7024536,9.50553506 18.9330454,9.26634317 18.9330454,8.97232472 L18.9330454,8.4704797 C18.9330454,8.21064945 19.136121,8 19.3866091,8 L29.5464363,8 Z M3.9049676,17.5350554 C4.45517063,17.5350554 4.90280778,17.0707232 4.90280778,16.5 C4.90280778,15.9292768 4.45517063,15.4649446 3.9049676,15.4649446 C3.35476458,15.4649446 2.90712743,15.9292768 2.90712743,16.5 C2.90712743,17.0707232 3.35476458,17.5350554 3.9049676,17.5350554 Z M29.0928726,10.2061734 L29.0928726,8.94095941 L19.8401728,8.94095941 L19.8401728,8.97232472 C19.8401728,9.78518819 19.2026436,10.4464945 18.4190065,10.4464945 C17.6353693,10.4464945 16.9978402,9.78518819 16.9978402,8.97232472 L16.9978402,8.94095941 L13.2962765,8.94095941 C9.20204752,8.94095941 5.8438013,12.302631 5.81017711,16.4346974 C5.79360691,18.4788376 6.55148164,20.4002768 7.94434557,21.8450258 C9.32215119,23.2742804 11.1497711,24.0590406 13.0967084,24.0590406 C13.1178747,24.0590406 13.1389806,24.0589779 13.1601469,24.0587897 C17.1436458,24.0239114 20.3844492,20.5404797 20.3844492,16.2936162 L20.3844492,15.1127122 C20.3844492,13.6500849 21.3939006,12.4139779 22.7847689,12.1735314 L28.259041,11.2271144 C28.7422376,11.1436199 29.0928726,10.7142288 29.0928726,10.2061734 Z" id="path-1"></path>
        <rect id="path-3" x="0" y="0" width="32" height="32"></rect>
        <filter x="-46.9%" y="-46.9%" width="193.8%" height="193.8%" filterUnits="objectBoundingBox" id="filter-4">
            <feOffset dx="0" dy="0" in="SourceAlpha" result="shadowOffsetOuter1"></feOffset>
            <feGaussianBlur stdDeviation="5" in="shadowOffsetOuter1" result="shadowBlurOuter1"></feGaussianBlur>
            <feColorMatrix values="0 0 0 0 0   0 0 0 0 0   0 0 0 0 0  0 0 0 0 0" type="matrix" in="shadowBlurOuter1"></feColorMatrix>
        </filter>
    </defs>
    <g id="Playground" stroke="none" stroke-width="1" fill="none" fill-rule="evenodd">
        <g transform="translate(-428.000000, -114.000000)" id="Icon-mobile/-icon-in-play">
            <g transform="translate(426.000000, 106.000000)">
                <polygon id="Shape" points="0 0 32 0 32 32 0 32"></polygon>
                <mask id="mask-2" fill="white">
                    <use xlink:href="#path-1"></use>
                </mask>
                <g id="Shape"></g>
                <g id="↳-Color" stroke-width="1" fill-rule="evenodd" mask="url(#mask-2)">
                    <g id="BG">
                        <use fill="black" fill-opacity="1" filter="url(#filter-4)" xlink:href="#path-3"></use>
                        <use fill="#555555" fill-rule="evenodd" xlink:href="#path-3"></use>
                    </g>
                </g>
            </g>
        </g>
    </g>
</svg>